{"glyphs":{"0":{"ha":655,"x_min":58,"x_max":628,"o":"m 361 806 q 327 815 338 815 q 311 792 311 815 q 302 747 311 765 q 283 730 294 730 q 282 730 282 730 q 281 731 282 731 l 275 731 q 248 690 262 731 q 222 590 233 655 q 217 491 217 559 q 235 263 217 358 q 260 183 243 220 q 288 146 277 146 q 319 176 294 146 q 343 213 343 205 q 374 264 343 224 q 429 366 403 302 q 465 487 454 430 q 469 543 469 513 q 439 709 469 623 q 361 806 414 784 m 301 981 q 372 986 335 986 q 471 944 471 986 q 503 901 471 930 q 620 620 589 822 q 628 525 628 570 q 594 326 628 444 q 487 109 553 183 q 334 34 420 34 q 285 22 297 34 q 248 9 273 9 q 187 20 227 9 q 88 110 118 41 q 58 411 58 180 q 76 654 58 574 q 205 935 114 833 q 243 968 229 962 q 301 981 256 975 z "},"1":{"ha":359,"x_min":1,"x_max":316,"o":"m 165 1038 q 209 1080 205 1080 q 252 1003 216 1080 q 289 913 289 926 q 274 890 289 894 q 259 880 259 886 q 278 844 259 875 q 297 788 297 812 q 285 768 297 768 q 277 731 271 768 q 309 183 301 518 l 316 -23 l 275 -3 q 228 15 243 15 l 227 14 l 225 14 q 177 56 214 14 q 130 119 140 98 q 123 156 123 137 q 129 218 123 179 q 138 414 138 283 q 130 621 138 536 q 104 722 122 708 q 79 736 87 736 q 56 758 68 736 q 26 804 34 791 q 5 850 9 831 q 3 867 1 864 q 16 868 5 871 l 18 868 q 20 867 19 867 q 79 929 34 867 q 165 1038 115 985 z "},"2":{"ha":562,"x_min":27,"x_max":538,"o":"m 250 977 q 350 991 285 991 q 449 975 415 991 q 507 925 481 959 q 532 865 532 891 q 518 844 532 849 q 507 799 507 840 q 490 709 507 760 q 387 490 473 661 q 255 244 301 319 l 206 163 l 313 167 q 372 168 334 168 q 480 161 437 168 q 538 149 538 152 q 507 81 538 137 q 458 8 475 26 l 429 -23 l 403 -9 q 294 8 368 8 q 189 -1 252 8 q 106 -12 119 -12 q 85 -7 91 -12 q 72 14 79 -1 q 65 53 65 31 q 94 140 65 103 q 102 168 110 163 q 85 209 94 174 q 77 274 77 244 q 79 293 77 288 q 118 370 84 327 q 266 595 195 465 q 350 799 336 726 q 350 821 354 821 q 345 818 349 821 q 305 810 334 810 q 262 802 278 810 q 157 690 237 788 l 130 656 l 104 671 q 53 728 79 684 q 27 804 27 773 q 31 826 27 822 q 43 827 34 830 l 45 827 q 47 826 46 826 q 96 864 60 826 q 250 977 175 947 z "},"3":{"ha":640,"x_min":38,"x_max":631,"o":"m 498 1008 q 507 1015 503 1016 q 507 1004 510 1013 q 511 985 503 993 q 506 966 519 977 q 488 907 490 954 q 441 752 486 845 q 366 659 396 659 q 312 613 345 659 q 278 560 278 570 q 331 551 278 556 q 507 507 433 541 q 596 420 562 481 q 631 288 631 358 q 628 247 631 260 q 524 56 613 148 q 340 -54 435 -37 q 289 -57 321 -57 q 161 -52 231 -57 q 91 -38 91 -46 q 129 1 91 -27 q 171 39 171 34 q 229 73 171 46 q 362 159 292 103 q 450 250 433 214 q 461 297 461 270 q 422 368 461 353 q 293 397 363 389 q 269 399 285 399 q 197 385 247 399 q 122 369 146 369 q 65 396 92 369 q 38 457 38 423 q 52 507 38 477 q 222 757 84 571 q 283 845 283 837 q 277 846 283 846 q 208 836 258 846 q 133 815 159 825 l 94 800 l 85 818 q 62 860 76 841 q 47 911 47 883 q 64 968 47 944 q 96 997 81 997 q 102 987 102 997 q 119 979 102 974 q 351 1005 216 1005 l 391 1005 q 442 1004 408 1004 q 498 1008 496 1004 z "},"4":{"ha":631,"x_min":27,"x_max":621,"o":"m 346 1000 q 362 1001 353 1001 q 411 972 381 1001 q 453 899 446 939 q 457 860 457 876 q 437 830 457 834 q 382 745 420 827 q 279 526 336 640 q 224 395 224 415 l 224 393 q 307 402 233 393 q 395 414 380 411 q 404 417 401 415 q 408 426 407 419 q 410 446 410 433 q 408 513 410 480 q 406 578 406 575 q 418 613 406 609 q 448 625 439 620 q 458 628 453 628 q 483 621 469 628 q 503 612 487 620 q 526 601 519 604 q 574 559 549 593 l 597 525 l 581 511 q 567 481 567 499 q 570 450 567 477 q 576 408 572 416 q 597 396 581 399 q 621 388 621 391 l 600 353 l 579 321 l 587 220 q 597 60 597 122 l 597 3 l 564 14 q 511 30 528 28 q 460 54 492 33 q 418 92 429 75 q 410 121 410 104 q 415 172 410 141 q 419 225 419 203 q 418 239 419 237 q 374 245 411 245 q 172 221 281 245 q 65 203 92 203 l 61 203 q 39 227 50 208 q 27 259 27 245 q 31 269 27 264 q 54 323 35 274 q 91 385 72 369 l 110 403 l 90 442 q 71 499 71 477 q 117 591 71 528 q 270 883 198 705 l 315 996 l 346 1000 z "},"5":{"ha":659,"x_min":24,"x_max":618,"o":"m 543 1035 q 589 1054 581 1054 q 598 1012 593 1054 q 604 941 604 970 l 604 932 q 568 845 600 864 q 445 827 547 831 q 294 818 331 822 q 258 808 258 814 l 263 803 q 256 779 274 791 q 245 751 245 772 q 248 713 245 746 q 266 639 255 639 q 286 648 270 639 q 351 663 312 663 q 387 654 381 663 q 437 629 396 640 q 570 509 524 604 q 618 247 618 404 q 567 8 618 87 q 489 -48 544 -27 q 368 -69 434 -69 q 292 -61 328 -69 q 141 8 227 -47 q 33 106 56 64 q 29 114 31 110 q 26 121 27 118 q 24 125 24 123 q 27 127 24 127 q 53 118 35 127 q 110 106 75 106 q 141 115 138 106 q 247 125 144 125 q 377 118 313 125 l 433 111 l 444 138 q 458 266 458 179 q 449 381 458 338 q 374 479 427 479 q 309 461 346 479 q 271 429 271 445 q 273 412 271 419 q 271 385 278 385 q 199 399 252 385 q 126 423 146 414 q 88 477 88 442 q 92 513 88 492 q 100 595 100 548 q 90 724 100 651 q 76 819 76 806 q 52 865 76 845 q 31 891 31 882 q 35 907 31 898 q 41 935 41 921 q 102 974 41 941 q 176 1006 164 1006 q 191 990 187 1006 q 224 975 195 975 q 286 978 227 975 q 543 1035 442 986 z "},"6":{"ha":659,"x_min":46,"x_max":637,"o":"m 457 476 q 425 526 435 526 q 343 479 415 526 q 259 435 281 435 q 256 436 258 435 q 252 437 254 437 l 232 442 l 236 338 l 240 233 l 278 180 q 327 125 311 133 q 328 125 328 125 l 331 123 q 384 145 346 123 q 437 184 422 167 q 469 247 461 213 q 477 345 477 281 q 457 476 477 426 m 338 1057 q 425 1081 389 1081 q 477 1067 457 1081 q 498 1028 498 1053 q 507 994 498 1004 q 500 987 514 987 q 483 989 495 987 l 450 994 l 418 924 q 391 870 399 883 q 373 857 382 857 l 372 857 q 368 859 369 859 q 364 859 366 859 q 361 860 362 860 q 312 825 347 860 q 255 746 271 783 q 236 652 239 709 l 232 589 l 263 627 q 324 689 296 669 q 388 712 355 712 q 404 707 399 712 q 442 700 408 703 q 559 618 507 694 q 637 339 637 502 q 633 271 637 304 q 570 94 620 164 q 425 -23 519 24 q 317 -52 365 -52 q 166 20 231 -52 q 79 217 102 92 q 54 320 66 286 q 46 361 46 345 q 54 427 46 377 q 75 613 68 509 q 94 758 81 708 q 138 860 106 807 q 233 973 168 909 q 338 1057 298 1038 z "},"7":{"ha":567,"x_min":3,"x_max":540,"o":"m 477 1009 q 502 1009 477 1009 q 533 993 533 1009 q 526 964 533 987 q 524 939 524 955 q 530 906 524 921 q 540 857 540 880 q 538 821 540 834 q 528 757 533 769 q 506 745 522 745 q 483 731 487 745 q 448 637 471 693 q 414 547 414 553 q 450 536 414 536 q 486 533 486 536 q 465 469 484 522 q 435 393 446 416 q 403 354 415 354 q 380 365 397 354 q 355 370 362 377 q 326 266 349 359 q 300 88 300 163 l 300 80 l 300 -4 l 256 14 q 210 31 218 31 q 208 31 210 31 l 206 30 q 170 60 198 30 q 132 111 141 90 q 119 164 119 136 q 155 298 119 205 q 184 391 184 380 q 178 409 184 392 q 172 441 172 426 q 179 496 172 467 q 204 551 187 526 q 232 576 221 576 q 239 563 239 576 q 241 553 239 553 q 278 632 251 553 q 327 762 285 652 q 347 829 347 814 q 305 834 347 834 q 138 825 220 834 q 68 819 79 819 q 22 828 35 819 q 5 860 9 837 q 3 879 3 876 q 15 907 3 892 q 31 933 31 926 q 61 975 31 943 q 100 1008 91 1008 q 111 996 111 1008 q 142 983 111 983 q 297 996 175 983 q 477 1009 403 1006 z "},"8":{"ha":682,"x_min":34,"x_max":654,"o":"m 446 890 q 389 894 434 894 q 307 890 339 894 q 286 884 290 888 q 281 865 281 879 q 297 798 281 846 q 312 734 312 753 q 324 697 312 719 l 334 680 l 366 713 q 452 853 426 777 q 460 880 460 873 q 446 890 460 886 m 296 1055 q 359 1080 334 1080 q 381 1067 376 1080 q 430 1051 385 1055 q 555 1020 514 1042 q 613 956 597 998 q 624 910 624 926 q 618 863 624 890 q 506 601 595 731 l 460 532 l 529 450 q 625 316 600 368 q 654 208 654 255 q 420 1 654 66 q 271 -18 351 -18 q 210 -7 214 -18 q 186 23 205 7 q 175 42 168 39 q 227 84 184 42 q 327 157 271 132 q 403 184 382 184 q 420 178 414 184 q 429 175 423 175 q 471 190 445 175 q 496 216 496 205 q 473 266 496 231 q 382 376 454 296 q 304 457 311 457 q 255 323 290 457 q 220 142 220 189 q 220 130 220 138 q 221 119 221 122 q 199 103 221 107 q 152 98 167 98 q 67 119 100 98 q 34 178 34 141 q 64 270 34 198 q 161 552 121 397 q 176 585 170 585 q 178 586 178 585 q 156 640 178 600 q 123 754 126 701 q 123 769 123 760 q 122 784 122 779 q 138 876 122 838 q 193 951 153 913 q 248 1016 236 994 q 296 1055 258 1032 z "},"9":{"ha":667,"x_min":12,"x_max":628,"o":"m 365 817 q 326 837 342 837 q 269 825 309 837 l 224 811 l 218 770 q 205 708 210 720 q 186 696 199 696 q 172 684 172 696 q 175 661 172 682 q 206 568 179 631 q 236 519 228 519 q 241 522 239 519 q 294 607 251 530 q 363 739 338 684 l 391 795 l 365 817 m 209 994 q 256 996 224 996 q 400 977 354 996 q 439 966 423 966 q 456 970 448 966 q 476 987 476 978 q 488 997 476 1004 q 500 983 495 993 q 537 948 509 966 q 585 894 562 933 q 621 804 608 854 q 628 772 628 780 q 617 755 628 764 q 604 703 604 745 q 606 598 604 696 q 609 503 609 533 q 581 208 609 290 q 487 57 555 137 q 362 -50 419 -23 q 277 -69 320 -69 q 161 -46 227 -69 q 94 -14 94 -22 q 130 15 94 -7 q 176 46 171 39 q 216 65 182 54 q 279 106 247 76 l 309 134 q 354 175 340 163 q 431 285 411 227 q 452 461 452 343 l 452 532 l 422 488 q 232 349 327 349 q 151 377 190 349 q 42 559 100 411 q 12 680 12 639 q 69 863 12 745 q 121 937 99 929 q 140 956 140 945 q 159 981 140 970 q 209 994 179 991 z "}," ":{"ha":324,"x_min":0,"x_max":0,"o":""},"!":{"ha":324,"x_min":54,"x_max":282,"o":"m 65 760 l 60 1031 l 103 1017 q 155 1000 153 1000 q 201 970 168 997 q 241 928 233 944 q 251 898 251 909 q 243 841 251 882 q 225 633 225 750 q 231 525 225 568 q 244 391 237 473 l 248 332 l 224 324 q 198 308 198 316 q 195 305 198 305 q 137 334 183 305 q 77 380 91 362 q 54 430 54 410 q 66 445 54 445 q 75 467 80 445 q 65 760 71 487 m 107 155 q 115 189 111 182 q 126 195 119 195 q 156 186 137 195 q 218 147 176 176 q 271 104 259 118 q 275 92 281 92 q 267 94 273 92 l 263 94 q 240 46 250 94 q 222 -4 228 -4 q 148 26 212 -4 q 72 68 84 57 l 54 84 l 77 104 q 107 155 100 125 z "},"\"":{"ha":594,"x_min":58,"x_max":534,"o":"m 346 936 l 340 1021 l 408 1005 q 493 979 452 996 q 534 956 534 963 q 524 922 534 948 q 513 841 513 899 l 513 799 l 515 705 l 490 703 q 484 703 490 703 q 358 741 426 703 q 336 760 336 754 q 349 765 336 765 q 358 780 358 765 q 357 808 358 796 q 346 936 350 867 m 68 936 l 62 1021 l 130 1005 q 215 979 174 996 q 256 956 256 963 q 245 922 256 948 q 235 841 235 899 l 235 799 l 237 705 l 212 703 q 206 703 212 703 q 80 741 148 703 q 58 760 58 754 q 71 765 58 765 q 80 780 80 765 q 79 808 80 796 q 68 936 72 867 z "},"#":{"ha":1164,"x_min":12,"x_max":1184,"o":"m 696 427 q 614 437 696 437 l 530 437 l 513 382 q 503 355 509 370 q 494 330 498 339 q 490 317 490 320 l 490 316 q 571 308 490 308 l 654 308 l 673 362 q 683 391 677 376 q 692 415 689 406 q 696 427 696 425 m 604 982 q 616 990 610 990 q 629 970 625 990 q 651 922 635 945 q 673 836 669 897 l 673 800 q 647 727 673 736 q 606 658 627 719 l 586 597 l 673 597 l 760 597 l 780 659 l 818 783 q 857 898 844 869 q 886 926 871 926 q 918 939 906 926 q 928 945 925 945 q 939 929 933 945 q 968 875 945 910 q 987 835 983 852 q 990 766 990 818 q 987 701 990 713 q 972 682 985 688 q 945 646 960 677 q 930 598 930 616 q 936 589 930 589 q 1069 580 955 589 q 1184 570 1183 571 q 1164 526 1184 560 q 1145 483 1145 495 q 1108 448 1145 476 q 1047 408 1072 419 q 996 397 1019 397 q 918 408 975 397 q 863 418 871 418 q 843 363 860 418 q 826 307 826 309 q 892 298 826 301 q 966 292 962 296 q 967 289 967 290 q 941 231 967 277 q 895 167 914 186 q 791 115 846 115 l 762 115 l 722 -7 q 701 -73 712 -37 q 681 -140 690 -109 q 670 -179 671 -172 l 654 -231 l 612 -183 q 533 -16 533 -99 q 559 84 533 28 l 583 137 l 559 142 q 484 148 532 148 l 435 148 l 401 30 q 358 -132 361 -123 q 345 -171 349 -171 q 296 -130 339 -171 q 217 41 217 -60 q 232 114 217 83 q 247 153 247 149 q 159 156 247 156 q 53 161 76 156 q 24 187 30 167 q 14 213 19 209 q 12 216 12 214 q 41 259 12 224 q 110 317 69 293 q 179 340 151 340 q 206 328 201 340 q 263 313 213 315 l 312 312 l 332 358 q 354 419 354 410 q 330 431 354 431 q 311 431 326 431 q 288 430 297 430 q 262 429 278 430 q 240 429 247 429 q 178 436 195 429 q 153 461 160 444 q 134 484 146 484 q 132 487 132 484 q 148 509 132 492 q 186 553 165 526 q 248 597 197 571 q 320 623 298 623 q 343 609 335 623 q 372 598 350 598 l 385 598 l 418 601 l 472 758 q 538 937 518 894 q 576 979 559 979 q 586 978 583 979 q 591 977 587 977 q 604 982 601 977 z "},"$":{"ha":651,"x_min":23,"x_max":593,"o":"m 262 970 q 286 971 269 971 q 395 959 347 971 q 430 939 430 949 q 420 935 430 935 q 410 922 410 935 q 412 898 410 920 q 427 847 419 857 q 479 818 435 837 q 552 776 519 800 q 585 739 585 751 q 572 704 585 724 q 548 681 559 684 q 500 661 536 677 q 442 642 471 647 q 425 640 430 639 q 418 644 420 640 q 419 654 416 647 l 419 661 q 388 688 419 673 q 300 707 355 701 q 269 709 273 709 q 247 692 247 709 q 256 635 247 682 q 264 595 264 597 q 256 583 264 586 q 247 570 247 579 q 274 528 247 552 q 378 465 300 502 q 488 392 449 431 q 562 281 528 353 q 593 170 593 213 q 556 52 593 102 q 457 -14 519 1 l 415 -23 l 419 -53 q 429 -117 420 -62 l 435 -152 l 355 -149 q 245 -117 245 -144 q 248 -104 245 -113 q 255 -49 255 -87 l 255 -14 l 190 16 q 99 71 127 46 q 47 141 71 96 q 23 198 23 193 q 33 206 23 206 q 66 195 34 206 q 165 179 115 179 q 186 180 171 179 q 209 180 201 180 l 217 180 q 328 164 281 180 q 391 151 365 151 q 406 152 401 151 q 430 167 430 157 q 429 182 430 175 q 399 250 423 208 q 363 292 381 278 q 282 338 346 305 q 199 384 224 368 q 152 425 175 400 q 76 616 76 507 q 99 734 76 671 q 125 822 119 788 q 142 871 130 854 q 189 888 155 888 l 209 888 q 222 888 214 888 q 232 887 229 887 q 254 895 254 887 q 252 905 254 901 q 241 952 241 944 q 262 970 241 966 z "},"%":{"ha":819,"x_min":9,"x_max":780,"o":"m 589 991 q 602 993 594 998 q 609 978 609 987 q 629 928 609 966 q 650 838 650 890 q 616 751 650 768 q 519 575 594 741 q 381 277 414 343 q 283 65 319 152 l 250 -14 l 218 26 q 182 62 189 62 q 160 113 178 62 q 144 182 144 159 q 209 324 144 225 q 437 777 304 465 q 515 945 491 905 q 563 986 540 986 q 589 991 583 986 m 160 865 q 140 861 140 875 q 136 843 140 850 q 127 837 133 836 q 122 835 125 838 q 115 821 119 831 q 106 783 109 804 q 103 745 103 764 q 110 655 103 692 q 130 612 118 612 q 143 623 133 612 q 153 636 153 633 q 164 655 153 642 q 199 743 189 686 q 201 765 201 750 q 189 829 201 789 q 160 865 178 859 m 130 990 q 167 993 155 993 q 217 974 217 993 q 232 951 217 966 q 290 810 274 911 q 294 762 294 785 q 278 662 294 723 q 148 518 239 518 q 122 511 129 518 q 106 506 117 506 q 73 511 90 506 q 23 556 38 522 q 9 705 9 585 q 18 827 9 787 q 83 968 37 918 q 101 985 95 982 q 130 990 107 987 m 675 315 q 646 351 665 343 q 627 347 627 359 q 623 330 627 336 q 614 324 620 323 q 608 321 612 326 q 601 307 605 317 q 591 269 594 290 q 589 231 589 250 q 595 141 589 178 q 606 111 598 125 q 617 98 613 98 q 629 109 620 98 q 639 122 639 119 q 650 141 639 127 q 686 229 677 175 q 688 251 688 236 q 675 315 688 275 m 617 476 q 652 479 642 479 q 703 460 703 479 q 718 438 703 453 q 776 296 758 399 q 780 248 780 271 q 764 149 780 210 q 711 41 745 79 q 633 4 677 4 q 609 -3 616 4 q 591 -8 604 -8 q 560 -3 576 -8 q 510 42 525 8 q 496 191 496 71 q 505 313 496 273 q 570 454 524 404 q 588 471 582 468 q 617 476 594 473 z "},"&":{"ha":699,"x_min":27,"x_max":699,"o":"m 378 179 q 380 186 380 182 q 327 279 380 203 q 263 359 273 359 q 227 279 254 359 q 201 183 201 199 q 224 183 201 178 q 236 184 228 184 q 267 172 251 184 q 328 144 304 144 q 350 152 336 144 q 378 179 372 165 m 316 867 q 275 876 292 876 q 229 865 262 876 q 179 830 179 848 q 184 823 179 825 q 240 779 198 818 q 282 719 282 739 q 275 705 282 708 q 271 690 269 701 q 274 689 271 689 q 335 741 283 689 q 395 803 395 800 q 377 807 395 807 q 366 808 369 807 q 363 810 362 808 q 372 818 365 812 q 381 829 382 826 q 366 842 380 833 q 316 867 340 859 m 175 1039 q 220 1042 202 1042 q 425 989 326 1042 q 547 868 525 937 q 563 826 556 837 q 567 803 567 819 q 559 735 567 774 q 544 684 552 696 q 475 627 530 661 q 399 564 437 601 q 362 514 362 526 q 415 435 362 507 l 469 362 l 487 384 q 515 401 503 401 q 534 399 521 401 q 563 385 552 395 q 590 349 574 374 q 620 263 620 301 q 610 220 620 220 l 609 220 q 655 164 609 210 q 699 110 699 121 q 646 88 699 100 q 620 73 620 83 q 578 68 620 68 l 556 68 q 536 68 548 68 q 521 69 524 69 q 491 65 499 69 q 471 46 483 61 q 317 -20 415 -20 q 173 12 255 -20 q 54 81 91 43 l 33 106 l 77 115 q 115 127 115 123 q 106 133 115 129 q 37 218 54 152 q 27 269 27 252 q 49 308 27 308 q 117 416 61 308 l 171 526 l 129 613 q 75 751 84 712 l 61 804 l 85 827 q 115 846 107 846 q 133 841 122 846 q 151 833 148 833 q 149 848 153 834 q 127 898 145 864 q 114 971 114 926 q 123 1020 114 1006 q 175 1039 134 1035 z "},"'":{"ha":316,"x_min":58,"x_max":256,"o":"m 68 936 l 62 1021 l 130 1005 q 215 979 174 996 q 256 956 256 963 q 245 922 256 948 q 235 841 235 899 l 235 799 l 237 705 l 212 703 q 206 703 212 703 q 80 741 148 703 q 58 760 58 754 q 71 765 58 765 q 80 780 80 765 q 79 808 80 796 q 68 936 72 867 z "},"(":{"ha":395,"x_min":34,"x_max":399,"o":"m 239 1032 q 244 1033 241 1032 q 248 1034 247 1034 q 281 1004 281 1034 q 294 968 281 989 q 307 899 307 951 l 307 876 q 281 776 304 776 q 277 776 281 776 l 274 777 q 216 621 254 777 q 195 446 195 533 q 243 187 195 278 q 330 100 259 155 q 364 74 347 88 q 390 51 381 60 q 399 39 399 42 q 361 15 399 31 q 320 -7 324 -1 q 267 -18 316 -12 q 239 -19 256 -19 q 179 -5 212 -19 q 126 24 142 9 q 95 69 110 39 q 43 289 61 137 q 34 422 34 380 q 60 639 34 514 q 149 925 92 800 q 196 1011 180 991 q 239 1032 212 1031 z "},")":{"ha":361,"x_min":7,"x_max":317,"o":"m 23 1008 q 24 1013 19 1013 q 34 1010 28 1013 q 95 998 46 1006 q 159 977 133 993 q 217 925 186 962 q 244 873 244 894 q 237 857 244 864 q 236 853 236 856 q 258 768 236 836 q 317 430 317 590 q 304 297 317 355 q 227 102 281 202 q 117 -45 172 1 q 79 -71 85 -71 q 73 -60 75 -71 q 57 104 57 15 l 57 129 q 61 184 57 170 q 81 225 65 199 q 130 312 113 277 q 149 368 145 346 q 153 449 153 389 l 153 472 q 149 577 153 548 q 125 665 144 606 q 50 849 100 739 q 7 954 7 940 q 15 977 7 960 q 23 1008 28 1000 z "},"*":{"ha":605,"x_min":57,"x_max":547,"o":"m 176 1001 l 171 1032 l 247 1028 q 341 1016 316 1024 q 366 990 366 1008 q 363 972 366 986 q 361 936 361 964 q 373 863 361 863 q 420 899 378 863 q 472 935 461 935 q 511 891 487 935 q 545 796 534 848 q 547 777 547 789 q 538 761 547 761 q 529 765 534 761 q 522 768 526 768 q 479 742 510 768 q 433 703 435 707 q 461 674 429 697 q 499 628 499 648 q 407 567 499 600 q 342 543 347 545 q 336 555 330 538 q 338 562 338 557 q 312 597 338 572 l 282 624 l 264 591 q 216 530 229 530 q 194 538 206 530 q 149 580 175 549 q 110 635 122 610 q 100 665 100 656 q 107 677 100 677 q 111 675 109 677 l 115 675 q 138 688 126 675 q 149 712 149 700 q 100 757 149 726 q 57 796 57 783 q 61 820 57 800 q 66 852 65 840 q 86 909 72 894 q 148 939 100 924 q 163 941 160 943 q 163 928 165 939 q 178 894 159 909 q 201 882 201 876 q 193 926 201 895 q 176 1001 179 982 z "},"+":{"ha":863,"x_min":22,"x_max":831,"o":"m 378 732 q 381 738 378 738 q 435 720 384 738 q 483 699 469 708 q 511 669 496 690 q 530 636 530 642 q 522 627 530 631 q 507 572 507 618 l 507 528 l 574 532 q 736 543 684 540 l 831 548 l 826 529 q 810 487 823 517 q 799 457 799 463 q 770 408 799 445 q 724 363 741 372 q 670 355 708 355 q 613 357 636 355 l 522 362 l 528 320 q 544 138 544 164 q 541 136 544 136 q 485 145 530 136 q 422 161 439 155 q 372 193 397 170 l 346 217 l 351 285 q 353 327 353 300 q 349 351 353 351 q 222 340 328 351 q 109 332 144 332 q 46 361 57 332 q 30 385 38 385 q 34 399 23 385 q 62 448 41 406 q 122 506 80 481 q 171 528 160 528 q 182 513 178 528 q 212 500 187 495 q 285 505 232 505 q 343 511 330 505 q 347 534 347 515 q 342 602 347 559 q 336 681 336 651 q 341 710 336 703 q 358 720 346 718 q 378 732 378 726 z "},",":{"ha":392,"x_min":47,"x_max":339,"o":"m 133 251 q 213 273 163 273 q 271 263 247 273 q 294 248 294 255 q 281 225 294 243 q 266 195 266 206 q 289 167 266 183 q 323 127 307 153 q 339 88 339 102 q 336 81 339 84 q 321 80 334 80 q 273 -20 311 80 q 168 -224 216 -165 q 142 -248 149 -248 q 134 -236 138 -248 q 91 -161 129 -222 q 47 -73 47 -98 q 57 -58 47 -62 q 99 -8 71 -52 l 126 34 l 100 41 q 54 71 54 52 q 64 77 54 77 q 72 102 72 77 q 71 109 72 104 q 71 118 71 114 l 71 127 q 133 251 71 209 z "},"-":{"ha":659,"x_min":58,"x_max":606,"o":"m 113 536 q 142 553 137 553 q 156 541 149 553 q 381 529 161 530 q 606 517 606 526 q 567 410 606 495 q 532 362 556 385 q 495 339 509 339 q 494 339 494 339 l 491 340 q 273 366 426 366 l 217 366 l 85 361 l 71 389 q 58 425 58 410 q 61 452 58 430 q 77 502 66 486 q 113 536 87 518 z "},".":{"ha":339,"x_min":37,"x_max":305,"o":"m 111 195 q 124 231 118 224 q 151 237 130 237 q 222 222 182 237 q 282 186 262 206 q 305 148 305 163 q 300 140 305 140 q 293 141 296 140 l 290 141 q 266 104 279 141 q 203 -49 210 -49 q 136 -1 197 -49 q 57 68 75 47 l 37 91 l 68 122 q 111 195 100 155 z "},"/":{"ha":532,"x_min":12,"x_max":518,"o":"m 457 991 q 470 993 464 997 q 476 978 476 989 q 498 928 476 968 q 518 838 518 890 q 483 751 518 769 q 389 575 465 743 q 250 277 301 382 q 152 65 187 152 l 118 -14 l 85 26 q 50 62 56 62 q 27 113 45 62 q 12 182 12 155 q 76 324 12 228 q 305 777 174 472 q 385 946 361 906 q 430 986 408 986 q 457 991 452 986 z "},":":{"ha":339,"x_min":37,"x_max":305,"o":"m 111 723 q 124 758 118 751 q 151 765 130 765 q 222 749 182 765 q 282 713 262 734 q 305 675 305 690 q 300 667 305 667 q 293 669 296 667 l 290 669 q 266 632 279 669 q 203 479 210 479 q 136 527 197 479 q 57 595 75 575 l 37 618 l 68 650 q 111 723 100 682 m 111 195 q 124 231 118 224 q 151 237 130 237 q 222 222 182 237 q 282 186 262 206 q 305 148 305 163 q 300 140 305 140 q 293 141 296 140 l 290 141 q 266 104 279 141 q 203 -49 210 -49 q 136 -1 197 -49 q 57 68 75 47 l 37 91 l 68 122 q 111 195 100 155 z "},";":{"ha":392,"x_min":37,"x_max":339,"o":"m 111 723 q 124 758 118 751 q 151 765 130 765 q 222 749 182 765 q 282 713 262 734 q 305 675 305 690 q 300 667 305 667 q 293 669 296 667 l 290 669 q 266 632 279 669 q 203 479 210 479 q 136 527 197 479 q 57 595 75 575 l 37 618 l 68 650 q 111 723 100 682 m 133 251 q 213 273 163 273 q 271 263 247 273 q 294 248 294 255 q 281 225 294 243 q 266 195 266 206 q 289 167 266 183 q 323 127 307 153 q 339 88 339 102 q 336 81 339 84 q 321 80 334 80 q 273 -20 311 80 q 168 -224 216 -165 q 142 -248 149 -248 q 134 -236 138 -248 q 91 -161 129 -222 q 47 -73 47 -98 q 57 -58 47 -62 q 99 -8 71 -52 l 126 34 l 100 41 q 54 71 54 52 q 64 77 54 77 q 72 102 72 77 q 71 109 72 104 q 71 118 71 114 l 71 127 q 133 251 71 209 z "},"<":{"ha":503,"x_min":5,"x_max":479,"o":"m 312 696 q 387 765 381 765 q 415 755 391 765 q 460 710 441 745 q 479 639 479 675 q 458 583 479 583 q 450 585 453 583 l 448 585 q 332 496 430 585 q 231 397 231 401 q 279 347 231 388 q 372 277 327 305 q 476 194 476 209 q 473 187 476 190 q 463 163 463 176 q 433 123 463 148 q 374 92 403 99 q 338 84 345 84 q 315 106 315 84 q 291 136 315 117 q 198 203 267 156 q 43 328 75 288 q 5 382 5 374 q 34 393 5 388 l 61 399 l 64 454 l 65 511 l 109 533 q 312 696 194 578 z "},"=":{"ha":624,"x_min":50,"x_max":570,"o":"m 111 636 q 142 652 132 652 q 155 640 155 652 q 206 631 155 631 q 479 643 258 631 l 570 647 l 556 591 q 491 461 528 481 q 472 457 483 457 q 438 463 465 457 q 232 472 400 472 l 64 472 l 54 502 q 50 524 50 515 q 66 575 50 543 q 111 636 88 618 m 132 347 q 168 363 156 363 q 178 353 178 363 q 229 335 178 335 q 256 336 247 335 q 395 349 292 340 q 532 361 495 355 l 568 363 l 560 311 q 534 221 552 262 q 502 172 517 180 q 480 170 496 170 q 454 172 464 170 q 258 179 425 179 q 84 186 98 179 q 71 222 71 195 q 88 292 71 254 q 132 347 106 330 z "},">":{"ha":522,"x_min":22,"x_max":521,"o":"m 85 711 q 163 734 136 734 q 195 712 195 734 q 427 534 195 681 l 521 475 l 495 454 q 468 416 468 433 q 469 397 468 406 q 472 377 472 381 q 465 357 472 365 q 433 335 457 350 q 262 155 359 288 q 215 98 229 113 q 189 83 201 83 q 164 91 183 83 q 118 149 138 103 q 98 229 98 194 q 113 256 98 256 q 119 255 117 256 l 122 255 q 208 338 137 255 l 279 425 l 245 456 q 121 552 190 503 q 26 624 33 614 q 31 659 22 631 q 48 688 38 678 q 85 711 58 699 z "},"?":{"ha":549,"x_min":37,"x_max":537,"o":"m 240 1023 q 283 1027 260 1027 q 408 1000 349 1027 q 495 928 467 972 q 537 779 537 863 q 488 632 537 694 q 373 525 464 601 q 277 426 288 454 q 263 404 271 410 q 235 395 255 399 q 201 372 201 387 q 197 360 201 362 q 183 361 194 358 q 132 402 151 370 q 113 475 113 434 q 127 545 113 514 q 158 589 138 570 q 190 609 178 609 q 197 605 193 609 l 199 605 q 271 646 213 605 q 357 719 330 688 q 378 762 378 742 q 377 785 378 777 q 307 854 372 854 q 222 812 258 854 q 179 705 186 769 l 174 654 l 132 686 q 91 709 99 709 q 90 708 90 709 q 88 705 90 705 q 64 738 83 705 q 41 793 46 770 q 37 825 37 808 q 77 933 37 884 q 152 989 102 962 q 240 1023 202 1017 m 193 191 q 197 209 193 205 q 220 213 202 213 q 294 197 252 213 q 351 165 336 182 q 363 151 361 155 q 365 144 366 146 q 355 138 363 141 q 335 106 339 132 q 317 39 330 75 q 300 3 304 3 q 227 45 293 3 q 153 96 161 87 q 159 122 142 109 q 193 191 193 148 z "},"@":{"ha":1188,"x_min":1,"x_max":1160,"o":"m 629 423 q 570 473 587 473 q 563 471 564 473 q 541 393 556 460 q 524 294 526 326 q 521 266 521 270 q 528 252 521 252 q 534 254 532 252 q 628 301 545 258 l 704 343 l 677 351 q 647 365 647 358 q 652 374 647 369 q 655 382 655 377 q 629 423 655 393 m 667 929 q 734 940 703 940 q 787 933 765 940 q 939 861 838 918 q 1076 769 1040 804 q 1115 707 1101 743 q 1143 594 1128 670 q 1160 454 1160 503 q 1096 205 1160 340 q 1053 126 1067 145 q 1020 107 1038 107 q 1004 102 1008 107 q 1000 83 1000 98 q 987 35 1000 60 q 960 3 975 11 q 907 -7 941 -7 l 905 -7 q 818 27 857 -7 q 730 144 779 61 q 716 155 723 155 q 670 140 711 155 q 556 91 632 126 q 479 60 488 60 q 450 88 463 60 q 438 152 438 117 q 434 191 438 184 q 406 203 430 197 q 355 229 377 212 q 334 259 334 245 q 357 345 334 278 q 410 517 384 423 q 446 627 437 613 q 481 632 454 636 q 495 631 486 631 q 553 648 518 631 q 605 670 600 670 q 669 613 616 670 q 713 569 701 579 q 739 559 726 559 q 753 560 747 559 q 761 561 755 560 q 768 562 766 562 q 819 540 788 562 q 892 448 892 490 q 880 419 892 431 q 866 394 869 408 q 863 338 863 380 q 890 199 863 237 q 902 188 898 187 q 922 203 906 189 q 939 228 936 216 q 943 277 943 240 q 948 342 943 326 q 972 365 954 358 q 1004 457 1004 376 q 1000 507 1004 480 q 963 654 982 633 q 872 705 952 669 q 796 740 819 732 q 730 749 773 747 l 704 749 q 517 696 581 749 q 468 671 487 671 q 463 672 467 671 q 458 673 460 673 l 449 673 q 385 642 431 673 q 301 568 332 605 q 207 397 248 509 q 165 212 165 286 q 178 160 165 176 q 250 82 201 129 q 321 24 300 35 q 429 8 351 8 l 456 8 l 559 9 l 521 -38 q 495 -83 495 -71 q 496 -84 495 -84 l 496 -85 q 458 -117 496 -91 q 321 -164 389 -164 q 155 -83 233 -164 q 66 24 111 -39 q 11 114 20 87 q 1 183 1 138 q 68 477 1 319 q 143 614 95 541 q 229 720 191 686 q 408 845 312 793 q 582 910 503 897 q 667 929 640 921 z "},"A":{"ha":700,"x_min":-11,"x_max":715,"o":"m 338 505 q 315 574 317 574 q 285 480 313 574 q 272 438 279 461 q 261 403 264 415 q 258 389 258 391 q 308 410 260 389 q 355 433 355 430 q 338 505 355 439 m 331 1008 q 335 1010 334 1010 q 349 1000 340 1010 q 373 986 358 986 q 389 987 382 986 q 404 989 395 989 q 420 985 418 989 q 442 970 425 979 q 450 962 450 966 q 427 943 450 958 q 401 914 401 926 q 404 901 401 911 q 426 854 410 873 q 466 795 458 819 q 475 703 473 770 q 494 555 476 621 q 513 487 511 488 l 514 487 q 575 502 521 487 q 637 515 633 515 q 646 509 646 515 q 644 495 646 500 q 635 439 636 460 q 612 357 632 406 l 589 309 l 646 208 q 715 57 715 84 q 703 33 715 47 q 690 8 690 20 q 692 3 690 4 q 693 -1 693 1 q 692 -4 693 -4 q 682 -1 690 -4 q 635 9 662 5 q 521 65 581 16 q 486 114 486 94 q 494 127 486 123 q 495 130 495 129 q 465 208 495 145 l 427 282 l 374 264 q 250 214 340 254 l 178 182 l 140 85 q 121 38 130 62 q 105 -1 111 14 q 99 -16 99 -15 q 65 18 90 -16 q 31 56 39 56 q 7 95 24 56 q -11 182 -11 134 q 5 252 -11 225 q 218 806 126 460 q 267 970 255 943 q 301 998 278 998 q 331 1008 326 998 z "},"B":{"ha":772,"x_min":3,"x_max":776,"o":"m 496 288 q 317 304 391 304 q 279 297 282 304 q 277 285 279 297 q 269 248 274 271 q 259 201 263 224 q 247 119 247 140 q 251 111 247 111 q 254 112 252 111 q 256 113 255 113 q 264 114 259 114 q 285 107 275 114 q 296 104 290 104 q 473 193 326 104 q 581 269 581 259 q 579 271 581 271 q 496 288 574 275 m 423 836 q 334 861 374 854 l 289 868 l 307 844 q 337 785 323 821 q 351 734 351 750 q 336 712 351 718 q 317 654 320 708 q 317 627 317 640 q 315 608 316 614 l 315 600 q 324 604 316 600 q 350 616 332 608 q 382 631 368 624 q 479 694 429 654 q 529 749 529 734 q 514 762 529 757 q 484 793 503 766 q 423 836 469 818 m 57 994 q 109 1031 91 1031 q 122 1020 118 1031 q 137 1012 125 1012 q 172 1017 140 1012 q 247 1021 201 1021 q 441 1002 361 1021 q 630 905 562 974 q 704 732 699 836 l 704 719 l 704 701 q 694 678 704 678 q 682 662 682 678 q 604 566 682 618 q 502 509 538 525 q 457 483 457 488 q 515 464 457 479 q 712 392 646 433 q 776 278 776 351 q 750 201 776 235 q 495 22 716 153 q 349 -56 400 -34 q 224 -94 298 -77 q 136 -109 156 -109 q 84 -83 107 -109 l 62 -58 l 80 -38 q 119 26 119 7 q 91 80 119 34 q 65 156 65 123 q 91 255 65 182 q 118 358 118 334 q 109 372 118 372 q 85 391 96 372 q 69 412 79 403 q 68 420 68 414 q 80 473 68 437 q 102 521 92 509 q 134 557 126 551 q 153 593 148 571 q 161 693 157 614 q 170 831 165 799 q 171 852 171 840 l 171 854 l 164 852 q 145 846 157 850 q 123 838 133 841 q 54 822 76 822 q 26 837 30 822 q 9 857 20 852 q 3 865 3 860 q 7 880 3 872 q 18 929 11 891 q 57 994 22 959 z "},"C":{"ha":661,"x_min":3,"x_max":627,"o":"m 330 1028 q 391 1038 358 1038 q 452 1009 452 1038 q 481 1000 452 998 q 491 1000 481 1000 q 529 989 515 1000 q 572 960 541 978 q 611 930 595 947 q 627 903 627 913 q 617 894 627 894 q 597 793 597 894 q 598 693 597 732 l 605 560 l 540 570 q 419 617 445 585 q 412 635 412 627 q 420 677 412 646 q 437 766 437 739 q 427 796 437 793 q 423 798 426 796 q 365 787 401 798 q 297 774 323 774 q 294 775 296 774 q 290 776 292 776 q 279 776 290 776 q 244 745 263 776 q 184 598 210 686 q 157 457 157 510 q 159 438 157 444 q 216 270 174 346 q 264 216 239 233 q 336 195 296 195 q 408 212 374 195 q 457 258 441 229 l 473 289 l 498 237 q 525 191 519 191 l 525 193 q 529 194 526 194 q 530 189 530 194 q 519 134 530 174 q 452 41 503 77 q 339 4 400 4 q 331 5 336 4 q 323 5 326 5 q 173 66 244 12 q 61 205 102 121 q 3 454 3 326 q 94 795 3 606 q 330 1028 182 974 z "},"D":{"ha":757,"x_min":-14,"x_max":755,"o":"m 410 785 q 354 814 358 814 q 353 795 350 814 q 343 773 357 773 q 332 754 332 773 q 335 711 332 749 q 345 422 339 652 q 358 198 350 198 l 435 224 q 502 256 488 241 q 515 312 515 271 q 532 382 515 338 q 566 445 549 427 q 579 479 579 458 q 578 509 579 496 q 552 621 574 545 q 503 715 533 680 q 410 785 472 751 m 104 1024 q 180 1039 142 1039 q 217 1028 210 1039 q 293 1000 227 1016 q 505 909 400 974 q 656 774 610 844 q 722 632 692 722 q 754 480 751 543 q 755 466 754 475 q 755 453 755 457 q 740 373 755 407 q 677 282 724 339 q 635 227 644 241 q 627 193 627 212 q 627 185 627 190 q 628 176 628 180 l 628 167 q 616 108 628 133 q 586 79 605 83 q 496 62 575 76 q 301 22 453 56 q 141 -3 195 -3 l 133 -3 l 85 -1 l 80 31 q 79 50 79 39 q 95 76 79 64 q 118 114 113 91 q 152 164 122 134 q 179 186 174 186 q 190 178 184 186 q 212 164 199 164 q 197 189 221 164 q 161 259 161 225 q 170 312 161 279 q 182 515 182 366 q 168 761 182 656 q 155 850 156 849 l 152 850 q 92 845 126 850 q 47 841 62 841 q 18 850 28 841 q -5 859 1 864 q -9 857 -7 857 q -14 867 -14 857 q -1 925 -14 884 q 33 983 9 960 q 104 1024 57 1006 z "},"E":{"ha":711,"x_min":19,"x_max":750,"o":"m 54 972 q 100 1005 87 1005 q 114 994 107 1005 q 142 985 119 985 q 217 990 144 985 q 396 998 312 998 q 587 983 509 998 q 667 964 663 968 q 646 928 671 960 q 623 887 623 898 q 584 846 623 878 q 530 810 545 814 q 519 808 528 808 q 476 818 499 808 q 342 838 427 838 q 326 834 326 838 q 332 814 326 827 q 327 785 340 799 q 315 719 315 773 q 315 667 315 719 q 321 559 317 563 q 324 559 321 559 q 393 572 336 559 q 473 589 458 589 q 498 562 486 589 q 503 517 503 547 q 480 418 503 454 q 463 397 468 397 q 450 408 458 397 q 433 415 444 415 q 380 407 420 415 l 316 395 l 316 283 q 323 170 316 174 q 327 168 323 170 q 334 168 331 168 q 401 172 361 168 q 460 175 434 175 q 637 161 545 175 q 743 133 728 148 q 720 107 750 126 q 684 72 692 88 q 642 26 674 56 q 591 -9 609 -3 q 572 -12 586 -12 q 519 -4 549 -12 q 400 11 457 11 q 170 -37 286 11 q 92 -60 109 -60 q 57 -41 76 -60 q 41 -12 41 -24 q 43 3 41 -8 q 46 31 52 26 q 45 37 45 33 q 62 82 45 50 q 94 129 79 114 q 115 146 110 144 q 126 138 119 148 q 142 129 133 129 q 195 140 152 129 q 259 163 259 155 q 250 165 259 165 q 238 166 245 165 q 229 167 231 167 q 182 199 214 170 q 140 248 149 228 q 129 288 129 270 q 133 316 129 300 q 137 357 137 336 q 136 368 137 365 l 136 378 q 144 453 136 407 q 156 589 156 524 q 155 663 156 633 q 142 814 152 804 q 130 817 140 817 q 100 812 119 817 q 72 807 73 807 q 56 818 62 807 q 34 845 47 833 q 19 898 19 857 q 24 937 19 925 q 54 972 30 948 z "},"F":{"ha":681,"x_min":1,"x_max":650,"o":"m 231 983 q 374 986 339 986 q 643 948 612 986 q 650 909 650 939 q 633 873 650 879 q 591 846 616 868 q 505 799 541 799 q 491 810 491 799 q 473 826 491 822 q 404 830 456 830 q 338 827 354 830 q 321 814 321 825 q 326 796 321 806 q 330 776 330 784 q 320 761 330 766 q 308 726 308 753 q 309 669 308 694 q 321 543 312 624 l 326 502 l 378 502 q 495 493 423 502 q 574 477 567 484 q 575 473 575 476 q 551 408 575 457 q 506 338 526 359 q 463 309 480 309 q 426 320 450 309 q 365 336 393 332 l 332 342 l 332 153 l 332 -38 l 292 -16 q 245 1 259 1 l 244 1 q 197 45 235 1 q 149 151 149 96 q 155 209 149 178 q 163 289 163 269 q 148 311 163 311 l 140 311 l 133 311 q 92 332 109 311 q 71 388 75 353 q 69 414 69 397 q 100 481 69 446 q 134 500 119 500 q 148 488 148 500 q 155 476 148 476 q 163 521 163 476 q 151 674 163 556 q 136 796 140 792 q 133 798 134 798 q 71 784 121 798 q 40 775 57 780 q 15 768 23 770 q 5 765 7 765 q 1 791 1 765 q 7 867 1 822 q 20 926 14 913 q 48 963 33 954 q 99 977 64 972 q 231 983 134 981 z "},"G":{"ha":741,"x_min":0,"x_max":769,"o":"m 206 1015 q 233 1017 217 1017 q 328 1010 271 1017 q 406 996 384 1004 q 596 882 513 956 q 680 753 680 808 q 663 727 680 739 q 631 715 647 715 q 617 719 621 715 q 548 731 605 731 q 475 745 475 732 q 480 754 475 746 q 467 787 491 766 q 334 845 404 838 l 296 848 l 286 812 q 268 751 274 764 q 250 739 262 739 l 247 739 l 245 739 q 214 697 231 739 q 167 453 182 605 q 163 388 163 407 q 174 336 163 359 q 221 275 186 311 q 271 236 256 239 q 279 235 274 236 q 285 235 283 235 q 369 282 315 235 q 422 351 422 327 q 418 369 422 366 q 404 369 415 372 q 354 359 391 365 q 335 357 338 357 q 308 381 320 357 q 298 414 298 403 q 304 452 298 419 q 328 522 311 491 q 357 552 345 552 q 368 538 363 552 q 380 536 368 536 q 491 557 391 536 q 678 583 605 583 l 685 583 q 766 578 758 583 q 769 572 769 575 q 705 439 769 544 q 684 407 692 415 q 669 399 677 399 q 642 404 663 399 q 612 408 627 408 q 598 407 601 408 l 581 403 l 586 197 q 597 -41 591 -4 l 601 -71 l 545 -65 q 444 -35 483 -58 q 404 22 404 -11 q 411 75 404 27 l 416 111 l 382 80 q 309 38 335 38 q 293 42 301 38 q 245 52 279 52 q 115 125 180 52 q 0 381 0 252 q 1 408 0 399 q 133 888 37 745 q 159 940 159 925 q 176 985 159 958 q 206 1015 193 1012 z "},"H":{"ha":761,"x_min":-27,"x_max":735,"o":"m 567 985 q 589 981 567 1001 q 595 974 593 978 q 632 945 609 959 q 677 888 651 936 q 703 814 703 840 q 690 788 703 793 q 680 694 680 784 l 680 605 l 707 605 q 735 597 735 605 q 711 553 735 587 q 699 535 704 544 q 692 522 694 526 q 692 517 690 517 q 686 506 694 517 q 680 463 680 496 q 682 399 680 453 q 719 53 696 171 q 727 11 727 18 q 722 7 727 7 q 681 15 708 7 q 636 24 650 24 l 632 23 l 629 23 q 578 57 616 23 q 529 114 540 91 q 515 198 515 141 q 517 296 515 252 l 521 445 l 477 445 q 380 439 439 445 l 326 435 l 327 262 l 327 250 q 300 -104 327 39 l 292 -151 l 252 -113 q 214 -80 217 -80 l 213 -81 q 179 -40 208 -81 q 142 24 151 1 q 134 65 134 46 q 144 130 134 83 q 165 366 165 241 q 163 397 165 397 q 83 377 159 397 l 11 354 l -9 380 q -27 412 -27 399 q -26 420 -27 418 q -20 467 -20 442 q 15 532 -19 496 q 72 567 49 567 q 85 557 81 567 q 123 553 88 547 l 159 559 l 153 595 q 133 718 152 610 q 113 848 117 815 q 110 879 110 875 q 127 903 110 897 q 149 924 149 913 q 164 932 149 941 q 174 922 168 928 q 218 894 184 909 q 285 829 255 878 q 316 755 316 777 q 307 736 316 742 q 298 713 298 732 q 304 659 298 711 q 323 591 312 591 l 326 591 q 330 593 328 593 q 425 608 342 595 q 515 621 509 621 q 518 697 518 621 l 518 749 q 517 875 517 804 q 522 949 517 935 q 543 970 526 963 q 567 985 567 979 z "},"I":{"ha":298,"x_min":31,"x_max":251,"o":"m 117 987 q 125 993 122 993 q 172 960 134 993 q 235 875 220 918 q 251 811 251 830 q 239 785 251 792 q 227 709 231 781 q 220 369 224 636 q 210 -43 213 -41 q 174 -26 208 -46 q 129 -3 140 -5 q 80 43 115 0 q 37 110 45 85 q 31 153 31 125 q 33 172 31 167 q 56 380 50 292 q 65 663 62 469 q 72 958 71 945 q 92 975 76 975 q 117 987 107 975 z "},"J":{"ha":594,"x_min":-12,"x_max":579,"o":"m 354 987 q 494 996 399 996 q 579 987 579 996 q 557 922 579 977 q 522 848 534 868 q 503 804 503 817 q 487 783 503 793 q 473 749 476 776 q 467 628 469 723 q 447 315 458 412 q 410 137 435 217 q 367 45 399 102 q 328 -12 335 -12 q 327 -9 327 -12 q 293 4 327 -1 q 214 24 250 11 q 47 160 107 65 q -12 387 -12 255 q -3 468 -12 452 q 42 490 5 484 q 50 492 45 490 q 57 494 54 494 q 73 473 69 494 q 103 441 77 452 q 146 404 121 434 q 171 362 171 374 q 156 353 171 353 q 153 316 146 353 q 209 214 164 251 l 232 193 l 251 247 q 311 703 311 418 l 311 724 q 307 797 311 779 q 290 815 304 815 q 227 789 282 815 q 151 755 161 758 q 138 754 146 754 q 132 756 134 754 q 127 765 130 758 q 123 780 125 772 q 117 806 121 788 q 104 878 104 859 q 117 922 104 898 q 148 956 133 956 q 156 948 155 956 q 167 943 159 943 q 225 958 174 943 q 354 987 296 978 z "},"K":{"ha":677,"x_min":11,"x_max":711,"o":"m 483 941 l 571 1032 l 581 994 q 600 936 593 947 q 612 861 612 911 q 608 811 612 822 q 586 785 604 800 q 517 727 553 760 q 424 624 488 703 q 359 534 359 545 q 384 521 359 530 q 420 488 420 507 q 415 476 420 484 q 411 465 411 469 q 426 430 411 457 q 567 216 450 389 q 696 30 684 43 l 711 12 l 674 -3 q 627 -23 629 -20 q 575 -31 618 -31 q 503 -14 528 -31 q 463 49 479 3 q 317 307 431 137 q 264 369 277 369 q 251 330 254 369 q 248 183 248 290 q 241 -5 248 19 q 235 -16 239 -16 q 197 1 228 -16 q 151 23 159 23 q 105 69 140 23 q 68 134 71 115 q 66 157 66 140 q 71 232 66 193 q 79 315 79 297 q 66 338 79 338 q 33 364 47 338 q 14 429 18 391 q 11 460 11 453 q 24 505 11 481 q 40 526 35 524 q 52 518 45 528 q 65 506 60 506 q 72 532 72 506 q 56 722 72 547 q 45 872 45 837 q 66 937 45 925 q 90 954 87 948 q 114 944 95 960 q 141 928 130 928 q 177 904 155 928 q 216 848 199 880 q 239 787 239 799 q 228 770 239 774 q 216 720 216 766 q 221 652 216 686 l 227 617 l 264 673 q 483 941 361 814 z "},"L":{"ha":610,"x_min":14,"x_max":651,"o":"m 83 939 q 117 949 104 949 q 160 936 129 949 q 248 830 214 913 q 256 804 256 811 q 245 787 256 798 q 236 743 236 777 q 245 553 236 701 q 259 231 259 353 q 270 132 259 132 l 274 132 q 368 151 297 140 q 477 161 439 161 q 591 153 540 161 l 651 142 l 636 118 q 609 69 616 83 q 562 12 600 47 l 526 -20 l 431 -16 q 414 -16 426 -16 q 395 -15 401 -15 q 127 -79 255 -15 l 62 -111 l 38 -94 q 18 -68 22 -80 q 14 -22 14 -57 q 53 94 14 58 q 67 102 62 102 q 80 94 72 102 q 94 85 88 85 q 98 95 98 85 q 90 123 98 109 q 79 170 79 142 q 84 271 79 202 q 92 430 92 372 q 73 749 92 567 q 61 888 61 876 q 66 922 61 913 q 83 939 71 932 z "},"M":{"ha":998,"x_min":-7,"x_max":993,"o":"m 53 1010 q 84 1031 76 1031 q 95 1017 91 1031 q 101 1009 96 1012 q 125 1004 106 1006 q 178 1000 144 1001 q 277 997 212 998 q 484 986 463 991 l 513 979 l 484 920 q 426 830 460 864 l 399 803 l 415 731 q 463 585 430 675 q 510 477 496 495 q 515 475 511 475 q 563 590 522 475 q 659 850 601 700 q 722 1000 716 1000 q 750 977 727 1000 q 787 959 772 952 q 823 978 793 963 q 846 986 840 986 q 857 968 852 986 q 887 924 865 947 q 926 858 906 905 q 945 784 945 811 q 930 751 945 760 q 917 718 920 745 q 914 559 914 690 q 975 -12 914 175 l 993 -72 l 956 -65 q 922 -61 944 -64 q 898 -58 901 -58 q 829 -26 869 -57 q 772 38 789 5 q 754 353 757 65 l 751 644 l 728 585 q 667 403 692 484 l 629 281 l 644 255 q 655 227 655 239 q 650 197 655 214 q 636 166 643 171 q 595 159 629 161 l 574 159 q 511 174 545 159 q 442 231 442 203 q 445 239 442 233 q 448 248 448 244 q 418 316 448 258 q 340 472 380 388 q 290 572 298 564 l 289 572 q 286 548 286 572 q 288 517 286 529 q 297 250 297 378 q 292 69 297 149 q 279 -94 282 -85 q 275 -96 279 -96 q 231 -73 266 -96 q 180 -43 186 -43 q 152 -12 178 -43 q 111 91 111 38 q 123 221 111 132 q 132 429 132 278 q 127 689 132 545 l 122 844 l 79 841 l 47 841 q 7 848 18 841 q -5 878 -3 854 q -6 882 -5 879 q -7 887 -7 884 q 11 954 -7 917 q 53 1010 28 990 z "},"N":{"ha":894,"x_min":18,"x_max":875,"o":"m 703 991 q 705 997 703 997 q 750 960 709 997 q 802 889 780 932 q 823 819 823 846 q 810 800 823 800 q 799 730 799 800 q 830 345 799 547 q 875 38 875 54 q 872 37 875 37 q 844 43 864 37 q 818 49 822 49 q 802 39 810 49 q 795 18 795 30 q 796 11 795 12 q 798 5 798 8 q 793 3 798 3 q 777 5 784 3 q 728 14 764 9 q 612 58 677 16 q 553 117 553 94 q 554 123 553 119 q 555 129 555 127 q 450 281 555 146 q 298 483 332 431 l 255 547 l 252 519 q 243 339 248 495 q 233 174 237 184 l 233 172 q 232 170 232 171 q 248 161 232 161 q 330 144 264 161 l 392 127 l 373 99 q 347 54 357 75 q 309 -1 335 30 q 275 -31 283 -31 q 239 -12 266 -31 q 212 0 222 0 q 179 -7 198 0 q 148 -14 156 -14 q 141 -12 141 -14 q 115 -3 138 -5 q 55 18 92 0 q 18 50 18 37 q 34 101 18 65 q 57 137 50 137 q 68 129 62 137 q 77 122 71 122 q 95 129 87 122 q 102 137 102 133 q 91 155 102 144 q 60 205 73 172 q 52 237 52 225 q 62 302 52 258 q 95 621 95 445 q 94 704 95 674 q 87 846 91 815 q 65 925 83 878 q 46 990 46 975 l 46 991 q 95 979 53 991 q 140 971 123 971 q 141 971 141 971 l 144 972 l 146 972 q 201 944 157 972 q 270 892 245 916 q 316 811 297 865 q 458 532 374 662 q 574 377 495 477 q 659 277 652 277 q 661 283 661 279 q 650 533 661 342 q 640 817 640 742 q 654 966 640 939 q 684 983 662 983 q 703 991 703 983 z "},"O":{"ha":807,"x_min":-5,"x_max":799,"o":"m 491 751 q 429 800 450 800 q 415 792 420 800 q 400 785 412 785 q 392 787 395 785 q 389 787 391 787 q 387 788 388 788 q 349 753 373 788 q 287 604 305 689 q 263 357 269 518 l 256 206 l 307 163 l 357 119 l 410 123 q 501 144 452 127 q 574 178 551 160 q 616 243 593 193 q 634 296 631 275 q 637 368 637 316 l 637 385 q 617 540 637 477 q 491 751 582 650 m 362 997 q 416 1023 396 1023 q 453 1006 433 1023 q 495 991 473 991 q 513 981 513 991 q 510 962 513 978 l 506 930 l 564 902 q 665 831 616 878 q 705 769 705 792 q 734 675 705 745 q 799 365 799 526 q 788 256 799 300 q 687 67 758 137 q 490 -38 616 -3 q 357 -60 412 -60 q 205 8 273 -60 q 97 146 175 39 q 19 262 19 252 q 30 264 19 264 q 52 262 35 264 l 83 255 l 73 279 q 72 296 72 282 q 105 513 72 354 q 165 736 138 671 l 193 806 l 133 815 q 1 872 31 830 q -5 888 -5 883 q 3 916 -5 898 q 34 943 15 943 q 94 968 50 943 q 144 993 138 993 q 151 986 151 993 q 150 981 151 985 q 149 977 149 978 q 183 968 149 968 l 216 968 l 237 968 q 319 974 302 970 q 362 997 336 978 z "},"P":{"ha":734,"x_min":-3,"x_max":716,"o":"m 468 827 q 366 841 444 841 q 340 836 340 841 q 353 804 340 831 q 363 764 363 776 q 349 746 363 750 q 331 712 336 743 q 315 541 326 681 q 309 438 309 483 q 311 419 309 420 q 320 416 313 416 q 370 429 336 416 q 422 454 403 441 q 524 605 483 494 q 537 659 537 642 q 528 715 537 667 q 505 791 517 768 q 468 827 492 815 m 240 983 q 389 998 326 998 q 538 972 481 998 q 686 818 632 932 q 716 673 716 750 q 700 576 716 617 q 684 511 684 537 q 602 399 684 477 q 457 293 519 320 q 363 266 430 281 q 297 247 302 252 q 278 136 294 244 q 262 9 262 27 q 256 -14 262 -14 q 214 8 252 -14 q 172 27 182 27 l 171 27 l 170 27 q 136 62 163 27 q 102 115 109 96 q 94 161 94 136 q 109 233 94 191 q 161 572 141 331 q 172 754 172 692 q 163 800 172 800 q 102 784 148 800 q 53 769 57 769 q 30 777 43 769 q 1 787 14 787 q -3 833 -3 787 q 15 909 -3 886 q 111 982 73 982 q 127 974 122 982 q 144 966 134 963 q 240 983 153 968 z "},"Q":{"ha":850,"x_min":7,"x_max":825,"o":"m 480 857 q 392 876 416 876 q 355 856 363 876 q 347 826 347 834 q 335 793 347 818 q 307 773 321 768 l 305 773 q 302 774 304 774 q 258 724 285 774 q 178 407 178 586 q 178 387 178 401 q 179 366 179 373 q 205 248 182 289 q 240 201 225 213 q 282 190 255 190 l 286 190 q 349 201 316 190 q 381 220 381 212 q 347 266 381 227 q 308 332 308 312 q 317 355 308 343 q 332 378 332 373 q 411 393 332 393 q 473 387 450 393 q 500 372 494 380 q 507 349 507 365 q 519 311 507 323 q 529 304 526 304 q 568 338 536 304 q 601 380 593 363 q 616 433 609 396 q 636 518 625 490 q 651 631 651 560 q 628 769 651 720 q 480 857 605 818 m 327 1055 q 388 1072 363 1072 q 418 1055 414 1072 q 473 1027 422 1040 q 594 985 528 1013 q 696 929 661 956 q 787 807 757 884 q 823 604 817 730 q 824 585 823 597 q 825 567 825 572 q 810 419 825 488 q 776 330 796 350 q 741 279 762 317 q 711 241 718 241 q 665 209 701 241 l 625 175 l 688 94 q 802 -69 802 -60 q 740 -87 802 -76 q 656 -99 678 -99 q 594 -88 609 -99 q 552 -23 579 -77 q 505 62 522 39 l 487 80 l 429 52 q 231 -1 327 -1 q 133 7 187 -1 q 79 23 79 16 q 99 53 79 27 l 118 75 l 88 98 q 7 324 7 157 q 18 479 7 401 q 81 727 35 620 q 200 926 121 819 q 327 1055 279 1034 z "},"R":{"ha":784,"x_min":-8,"x_max":818,"o":"m 403 884 q 326 903 370 903 q 317 903 326 903 q 269 895 293 898 l 229 891 l 256 846 q 285 776 285 796 q 273 757 285 761 q 262 694 262 753 q 266 551 262 651 l 271 448 l 289 458 q 301 465 297 464 q 308 465 305 467 q 315 457 311 464 q 328 448 320 448 q 374 460 338 448 q 505 527 458 488 q 568 623 551 566 q 575 650 575 646 q 557 674 575 661 q 509 750 536 690 q 458 833 490 793 q 403 884 427 872 m 206 1048 q 323 1059 263 1059 q 334 1059 326 1059 q 345 1058 342 1058 q 475 1027 415 1055 q 588 939 526 1000 q 678 826 650 879 q 732 753 700 783 q 772 690 762 726 q 777 662 777 669 q 745 578 777 644 q 536 355 667 423 l 472 323 l 499 285 q 656 119 547 216 q 817 4 766 22 q 818 1 818 4 q 779 -49 818 -11 q 713 -99 739 -87 q 656 -115 678 -115 q 606 -90 632 -115 q 450 92 566 -47 q 312 266 335 231 q 293 263 309 269 q 279 254 282 260 q 277 220 277 247 q 279 136 277 214 l 283 15 l 241 33 q 189 50 201 50 q 142 84 176 50 q 99 137 107 118 q 92 178 92 153 q 99 267 92 195 q 104 469 104 326 q 94 793 104 681 l 88 845 l 61 838 q 23 852 34 833 q 1 868 12 868 q -3 890 -8 868 q 3 912 -3 891 q 9 943 8 933 q 54 1015 16 978 q 117 1053 92 1053 q 130 1046 126 1053 q 148 1040 134 1040 q 206 1048 161 1040 z "},"S":{"ha":675,"x_min":24,"x_max":650,"o":"m 288 1054 q 357 1061 326 1061 q 563 1004 444 1061 l 650 963 l 616 924 q 498 838 553 854 q 488 837 495 837 q 435 864 475 837 q 339 898 382 898 q 222 854 286 898 l 205 844 l 222 799 q 233 757 233 770 q 227 739 233 746 q 218 724 218 731 q 229 693 218 718 q 271 634 247 656 q 373 566 296 612 q 576 413 519 477 q 633 269 633 349 q 632 233 633 245 q 524 71 621 136 q 293 7 427 7 q 281 7 289 7 q 269 8 273 8 q 156 34 201 11 q 75 92 125 49 q 24 146 24 136 q 83 153 24 153 q 133 159 133 153 l 130 161 q 136 165 123 167 q 156 164 141 165 l 172 164 q 254 180 205 164 q 353 201 320 201 q 422 218 387 201 q 464 254 457 235 q 467 271 467 259 q 422 340 467 301 q 262 449 377 380 q 144 536 183 496 q 77 635 104 575 q 34 827 34 726 q 46 932 34 879 q 65 990 56 975 q 91 1005 75 1005 q 126 1024 102 1005 l 149 1042 l 144 1020 q 145 999 141 1004 q 159 1004 149 994 q 216 1031 170 1013 q 288 1054 262 1048 z "},"T":{"ha":806,"x_min":-11,"x_max":821,"o":"m 484 1005 q 590 1009 518 1009 q 796 998 746 1009 l 821 993 l 793 951 q 769 909 769 914 q 770 907 770 909 q 743 875 770 901 q 693 837 715 849 q 647 819 663 819 q 602 825 629 819 q 491 834 538 834 q 457 830 457 834 q 460 822 457 829 q 468 804 463 815 q 476 784 473 793 q 487 747 487 758 q 476 732 487 741 q 464 680 464 724 q 471 496 464 655 q 480 62 480 255 q 475 -66 480 -66 q 430 -46 471 -66 q 385 -30 397 -30 l 384 -30 l 381 -31 q 335 12 370 -31 q 293 79 300 54 q 288 114 288 95 q 293 159 288 133 q 307 438 307 225 q 300 691 307 579 q 282 803 293 803 q 111 734 255 803 l 47 703 l 18 718 l -11 732 l -11 787 q -3 846 -11 830 q 38 899 4 863 q 80 925 61 925 q 92 917 90 925 q 96 916 92 916 q 187 940 109 916 q 484 1005 334 989 z "},"U":{"ha":730,"x_min":31,"x_max":757,"o":"m 65 986 q 75 991 65 986 q 94 1005 84 996 q 115 996 103 1015 q 149 958 125 982 q 201 856 182 926 q 213 789 213 810 q 199 757 213 761 q 186 693 186 751 q 235 408 186 552 q 288 280 251 359 q 332 201 326 201 q 390 237 336 201 q 461 289 444 274 l 477 302 l 464 551 q 449 887 449 817 q 461 977 449 964 q 484 989 473 989 q 499 1000 496 989 q 514 1001 503 1009 q 560 972 551 979 q 608 913 585 956 q 640 827 632 871 q 641 806 643 811 q 628 798 639 800 q 614 774 614 795 l 614 755 q 623 595 618 690 q 715 66 635 229 q 735 25 724 46 q 751 -8 746 4 l 757 -19 q 722 -22 757 -22 q 707 -21 718 -22 q 689 -20 696 -20 q 585 -4 616 -18 q 530 34 555 8 q 500 83 506 60 q 494 96 498 96 q 457 64 490 96 q 323 7 401 7 q 212 53 252 7 q 159 153 194 72 q 96 317 123 233 q 43 521 56 441 q 31 739 31 601 l 31 758 q 39 952 31 925 q 65 986 46 977 z "},"V":{"ha":776,"x_min":-12,"x_max":738,"o":"m 594 1025 l 606 1065 l 640 1027 q 678 993 669 993 q 711 941 688 993 q 738 838 738 884 q 724 780 738 807 q 654 555 694 724 q 589 210 614 387 q 562 45 568 71 q 557 30 560 38 q 553 16 555 22 q 551 5 552 9 q 548 -3 549 0 l 548 -7 q 534 -9 548 -9 q 502 -22 519 -9 q 486 -31 490 -31 q 473 -14 483 -31 q 454 4 465 4 l 453 3 q 449 3 450 3 l 445 3 q 378 26 423 3 q 315 73 334 50 q 266 186 293 99 q 24 841 182 461 l -12 932 l 4 963 q 20 1004 20 991 q 22 1006 20 1006 q 38 994 27 1006 q 73 974 54 974 q 174 922 121 974 q 227 844 227 871 q 222 827 227 833 q 218 814 218 822 q 247 716 218 796 q 323 520 279 628 q 399 340 366 412 q 435 267 431 267 q 506 644 435 270 q 594 1025 564 935 z "},"W":{"ha":1039,"x_min":5,"x_max":1000,"o":"m 850 1044 q 876 1109 869 1109 q 913 1073 884 1109 q 943 1044 936 1044 q 968 1001 947 1044 q 1000 905 1000 940 q 975 795 1000 872 q 872 197 887 530 q 869 121 869 129 q 880 62 869 77 l 894 42 l 852 37 q 810 33 825 33 q 806 33 810 33 q 798 26 803 35 q 783 22 795 22 q 728 31 762 22 q 680 50 694 39 q 642 92 655 66 q 605 201 629 117 q 529 416 579 288 q 471 545 479 545 q 381 245 456 545 q 364 177 374 218 q 347 109 354 136 q 338 71 340 81 q 331 15 331 41 q 332 9 331 12 q 332 4 332 5 q 332 -14 335 -9 q 320 -15 330 -18 q 227 1 288 -7 q 171 34 208 4 q 123 85 134 64 q 103 298 107 117 q 35 830 96 582 l 5 951 l 23 966 q 41 989 41 981 q 50 997 41 997 q 80 986 61 997 q 118 974 99 974 q 197 905 145 972 q 227 845 227 867 q 220 821 227 830 q 217 803 217 815 q 237 620 217 757 l 266 433 l 288 524 q 347 739 305 593 q 397 905 389 884 q 404 913 401 913 q 441 884 410 913 q 480 856 472 856 q 483 857 481 857 q 486 852 484 856 q 490 845 488 849 q 518 815 495 829 q 576 766 540 806 q 606 726 606 735 q 601 711 606 722 q 597 694 597 703 q 636 582 597 682 q 722 389 713 389 q 738 471 728 389 q 850 1044 781 821 z "},"X":{"ha":735,"x_min":-9,"x_max":699,"o":"m 591 998 q 647 1072 591 998 q 669 1023 651 1072 q 693 979 685 979 l 694 979 q 699 943 699 979 q 699 905 699 943 q 684 808 696 834 q 613 709 673 781 q 517 573 572 661 q 448 450 461 486 q 445 435 445 442 q 502 290 445 411 q 631 23 595 92 l 697 -107 l 636 -104 q 452 -23 522 -100 q 381 123 420 9 q 336 239 340 239 q 278 130 335 239 q 210 9 233 42 q 170 -23 187 -23 q 166 -22 168 -23 q 163 -22 164 -22 q 138 -26 142 -16 q 130 -31 134 -31 q 122 -26 126 -31 q 118 -12 118 -20 q 102 34 118 -1 q 88 96 88 62 q 95 163 88 129 q 134 236 109 236 l 140 236 q 251 429 251 381 q 204 543 251 448 q 96 742 157 637 q -9 951 -9 920 q 3 975 -9 963 q 11 1000 14 983 q 15 1013 8 1013 q 38 1002 20 1012 q 73 990 57 990 q 201 913 123 987 q 237 876 229 886 q 245 854 245 865 q 244 844 245 848 q 243 840 244 842 q 243 836 243 837 q 294 715 243 808 l 350 613 l 389 686 q 591 998 472 837 z "},"Y":{"ha":677,"x_min":-14,"x_max":639,"o":"m 602 1031 q 612 1034 612 1040 q 609 1008 612 1029 l 609 993 q 620 954 609 971 q 639 833 639 925 q 635 792 639 806 q 612 764 629 772 q 584 721 598 758 q 541 574 570 684 q 477 64 477 323 q 486 -58 477 -9 q 491 -110 491 -90 q 490 -113 491 -113 q 444 -96 483 -113 q 401 -83 412 -83 q 396 -85 396 -83 l 396 -88 q 355 -56 388 -88 q 298 27 313 -14 l 282 72 l 302 194 q 328 330 308 231 q 300 354 332 342 q 266 378 278 362 q 220 463 254 395 q 91 703 183 537 q -5 890 5 856 q -14 926 -14 917 q 1 956 -14 940 q 39 978 19 978 q 65 975 43 978 q 123 964 102 972 q 174 930 145 955 q 193 907 193 916 q 187 892 193 899 q 183 879 183 887 q 214 807 183 868 q 306 655 247 747 q 370 563 365 563 q 400 656 378 563 q 503 970 458 888 q 530 1011 521 1004 q 563 1021 540 1019 q 602 1031 595 1024 z "},"Z":{"ha":719,"x_min":22,"x_max":749,"o":"m 544 1023 q 582 1031 563 1038 q 616 1032 600 1024 q 627 1031 627 1038 q 624 1016 627 1028 q 623 1001 623 1010 q 647 986 623 991 l 677 981 l 656 947 q 633 856 637 914 q 604 774 627 774 l 597 774 l 595 776 q 519 642 583 776 q 383 342 461 519 q 305 156 305 165 q 311 155 305 155 q 393 160 317 155 q 464 163 437 163 q 699 140 576 163 l 749 130 l 722 91 q 692 42 696 53 q 651 1 688 31 q 601 -33 614 -30 l 598 -33 q 594 -34 595 -34 q 547 -22 583 -34 q 393 -4 495 -4 q 225 -34 243 -4 q 208 -39 217 -49 q 194 -35 203 -35 q 144 -45 176 -35 q 65 -60 88 -60 q 46 -52 46 -60 q 33 -30 46 -43 q 22 -11 22 -19 q 34 37 22 -7 q 77 118 50 91 q 113 182 109 149 q 157 282 117 213 q 236 420 218 385 q 349 654 271 488 q 426 829 426 821 q 366 837 426 837 q 160 817 262 837 l 66 798 l 45 822 q 24 860 24 844 q 30 894 24 864 q 62 970 37 943 q 109 997 90 997 q 123 987 119 997 q 142 981 126 981 q 210 987 153 981 q 408 1002 297 998 q 544 1023 524 1006 z "},"[":{"ha":397,"x_min":38,"x_max":359,"o":"m 180 1051 q 312 1072 259 1072 q 349 1062 345 1072 q 350 1061 349 1062 q 350 1058 350 1059 q 336 997 350 1043 q 305 917 321 951 q 282 884 290 884 q 267 891 278 884 q 225 902 245 902 q 206 895 210 902 q 205 890 205 894 q 213 859 205 876 q 224 811 224 836 q 213 791 224 791 q 199 724 199 791 q 210 423 199 624 q 227 164 220 222 l 236 88 l 297 88 l 357 88 l 359 62 l 359 57 q 346 -19 359 26 q 309 -90 324 -90 q 301 -80 304 -90 q 239 -69 297 -69 l 220 -69 l 208 -69 q 111 -65 133 -69 l 81 -60 l 106 -3 l 129 53 l 111 65 q 41 152 53 104 q 38 201 38 160 q 42 301 38 240 q 46 472 46 366 q 43 637 46 524 q 38 854 38 846 q 42 925 38 907 q 57 951 46 943 q 71 975 71 960 q 70 979 71 977 q 69 983 69 982 q 68 987 69 985 q 68 991 68 990 q 76 1031 68 1012 q 91 1053 84 1053 q 99 1046 95 1053 q 115 1038 106 1038 q 180 1051 127 1038 z "},"\\":{"ha":530,"x_min":12,"x_max":518,"o":"m 73 991 q 100 986 79 986 q 146 946 122 986 q 225 777 170 906 q 454 324 357 472 q 518 182 518 228 q 503 113 518 155 q 480 62 486 62 q 445 26 475 62 l 412 -14 l 380 65 q 281 277 350 137 q 141 575 229 382 q 46 751 65 742 q 12 838 12 768 q 34 928 12 887 q 53 978 53 963 q 60 993 53 987 q 73 991 68 998 z "},"]":{"ha":414,"x_min":42,"x_max":382,"o":"m 68 1043 q 83 1053 80 1062 q 113 1040 84 1040 q 164 1043 118 1040 q 262 1051 252 1048 q 271 1053 266 1053 q 277 1046 277 1053 l 274 1024 q 273 1002 273 1016 q 293 964 273 989 q 330 900 309 947 q 350 834 350 853 q 335 814 350 822 q 321 788 324 808 q 317 694 319 768 q 309 476 317 595 q 302 244 302 361 q 307 111 302 149 l 312 69 l 349 64 q 376 57 370 61 q 378 45 382 53 q 369 24 377 43 q 357 -7 361 5 q 327 -67 347 -30 q 297 -117 307 -104 q 266 -106 294 -119 q 199 -95 244 -95 q 95 -106 160 -95 q 80 -109 84 -109 q 61 -90 69 -109 q 53 -35 53 -68 q 88 73 53 45 q 102 72 102 84 q 129 60 102 60 q 157 62 157 60 q 137 96 157 65 q 118 167 118 126 q 133 332 118 202 q 163 704 163 585 q 161 780 163 755 l 156 887 l 130 883 q 76 873 117 880 l 47 868 l 43 905 q 42 925 42 911 q 68 1043 42 991 z "},"^":{"ha":665,"x_min":53,"x_max":616,"o":"m 240 979 q 285 1024 279 1024 q 302 1002 292 1024 q 336 986 313 981 q 349 987 340 987 q 425 967 401 987 q 423 947 433 959 q 422 918 414 933 q 497 821 433 899 q 586 718 562 742 q 616 685 616 690 q 586 661 616 678 q 547 633 556 643 q 506 613 536 623 q 454 604 476 604 q 441 606 449 604 q 406 651 422 613 q 353 744 389 689 q 307 799 316 799 q 262 762 297 799 q 195 681 228 724 q 149 634 176 654 q 104 614 121 614 q 76 636 95 614 q 61 661 61 652 q 66 675 61 669 q 73 693 73 686 q 65 727 73 705 q 53 780 53 762 q 62 796 53 796 q 64 795 62 796 q 66 795 65 795 l 69 795 q 141 864 83 795 q 240 979 187 920 z "},"_":{"ha":659,"x_min":58,"x_max":606,"o":"m 113 22 q 142 39 137 39 q 156 27 149 39 q 381 15 161 16 q 606 3 606 12 q 567 -104 606 -19 q 532 -152 556 -129 q 495 -175 509 -175 q 491 -174 494 -175 q 273 -148 426 -148 l 217 -148 l 85 -153 l 71 -125 q 58 -90 58 -104 q 61 -62 58 -84 q 77 -12 66 -28 q 113 22 87 4 z "},"`":{"ha":397,"x_min":-4,"x_max":397,"o":"m 110 998 q 156 1004 129 1004 q 164 1004 156 1004 q 196 998 189 1002 q 209 979 203 994 q 334 808 232 910 q 397 727 397 745 q 387 709 397 718 q 373 692 373 699 q 326 667 373 682 q 248 652 279 652 q 214 662 214 652 q 221 675 214 669 q 222 678 222 677 q 161 758 222 692 q 43 891 79 846 l -4 949 l 43 971 q 110 998 75 985 z "},"a":{"ha":792,"x_min":7,"x_max":807,"o":"m 524 263 q 519 358 524 358 q 396 243 514 358 q 275 122 275 125 l 277 121 q 346 136 281 121 q 469 161 453 159 l 525 171 l 524 263 m 426 807 q 480 811 450 811 q 552 803 521 811 q 594 780 594 793 q 590 770 594 774 q 610 738 583 764 q 656 673 635 718 q 678 602 678 629 q 662 570 678 583 q 642 536 647 560 q 658 500 636 514 q 693 455 673 491 q 713 404 713 419 l 713 400 q 699 393 709 393 q 682 297 682 393 q 686 217 682 255 q 769 -3 697 106 q 807 -62 807 -61 q 762 -76 807 -65 q 718 -95 718 -87 q 696 -100 718 -100 q 605 -83 632 -100 q 571 -37 586 -72 l 556 -1 l 481 -4 q 241 -69 388 -9 q 221 -75 229 -75 q 180 -33 210 -75 q 168 -22 174 -23 q 146 -31 163 -22 q 94 -43 125 -43 q 50 -33 68 -43 q 20 7 34 -22 q 7 62 7 37 q 38 143 7 104 q 178 273 69 182 q 480 562 469 519 q 486 593 486 586 q 471 619 486 612 q 419 627 456 627 q 263 556 331 627 q 228 528 235 528 q 214 534 224 528 q 184 545 201 545 q 148 572 175 545 q 125 601 130 590 q 119 639 119 612 q 140 696 119 696 q 149 692 145 696 q 184 704 157 684 q 300 767 225 735 q 426 807 376 799 z "},"b":{"ha":747,"x_min":35,"x_max":715,"o":"m 487 286 q 490 393 490 351 q 487 486 490 439 l 481 570 l 438 540 q 311 429 389 507 q 231 334 243 361 q 220 212 220 307 l 220 199 q 221 133 220 146 q 229 119 222 119 l 237 122 q 430 165 372 160 l 481 171 l 487 286 m 132 979 q 133 981 132 981 q 183 945 145 981 q 224 901 212 920 q 247 850 236 883 q 262 787 262 808 q 247 764 262 764 q 236 720 236 764 q 231 627 236 681 l 225 575 l 302 644 q 426 745 389 720 q 519 793 458 766 q 597 821 581 821 q 604 795 604 821 q 602 766 604 777 q 601 736 601 754 q 616 701 601 712 q 652 659 632 690 q 671 612 671 627 q 658 587 671 595 q 647 532 647 581 q 650 408 647 528 q 655 275 652 324 q 662 199 658 227 q 671 162 666 171 q 684 152 675 153 q 715 137 715 146 q 705 114 715 129 q 693 80 693 94 q 700 49 693 72 l 709 12 l 675 12 q 616 -4 637 12 q 581 -18 598 -18 q 570 -16 574 -18 q 446 3 476 3 q 382 -5 423 3 q 275 -37 323 -16 q 222 -75 227 -58 q 214 -85 220 -85 q 176 -71 206 -85 q 133 -53 138 -53 q 99 -23 129 -53 q 50 41 64 12 q 35 111 35 71 q 43 190 35 144 q 54 332 52 254 q 65 488 57 406 q 75 732 72 553 q 81 915 76 878 q 106 963 87 952 q 132 979 125 972 z "},"c":{"ha":600,"x_min":30,"x_max":559,"o":"m 132 749 q 148 780 132 764 q 174 796 164 796 q 373 766 232 796 q 543 718 514 735 q 559 694 559 708 q 556 677 559 693 q 507 602 551 643 q 437 562 463 562 q 422 576 422 562 q 374 605 422 591 q 277 618 326 618 q 232 614 250 618 q 218 606 221 612 q 221 583 216 600 q 228 538 228 556 q 213 509 228 513 q 193 467 198 505 q 187 387 187 420 q 197 278 187 326 q 237 171 205 236 q 292 83 269 106 l 315 60 l 350 77 q 418 126 385 96 q 457 159 453 159 q 471 115 460 159 q 488 68 480 73 q 491 54 491 66 q 481 -5 491 33 q 458 -60 471 -42 q 338 -119 416 -119 l 336 -119 q 68 155 159 -119 q 30 395 30 269 q 34 490 30 439 q 75 701 45 620 q 107 730 83 724 q 132 749 132 735 z "},"d":{"ha":742,"x_min":34,"x_max":699,"o":"m 290 551 q 235 562 256 562 q 220 552 220 562 q 206 530 220 538 q 195 491 195 525 q 197 427 195 457 q 244 184 205 286 l 262 141 l 312 189 q 425 267 365 239 l 484 298 l 490 340 q 492 361 490 347 q 494 380 494 374 q 473 415 494 411 q 423 435 423 422 q 425 445 423 441 q 425 448 425 446 q 426 452 426 450 q 381 500 426 469 q 290 551 331 538 m 579 959 q 595 955 587 972 q 600 941 597 949 q 628 906 606 920 q 665 857 644 895 q 692 783 685 818 q 682 750 699 755 q 667 732 671 747 q 659 669 662 718 q 655 446 655 594 q 663 148 655 239 q 684 23 671 52 q 696 -8 696 -7 q 682 -9 696 -9 q 639 -8 655 -9 q 555 12 582 -4 q 509 51 532 26 q 481 94 487 76 q 475 106 479 104 q 456 99 471 107 q 347 -8 407 72 q 311 -46 319 -46 q 297 -39 307 -46 q 264 -27 279 -27 q 224 -3 248 -27 q 172 20 202 20 q 120 37 148 20 q 88 68 92 53 q 50 296 66 142 q 34 559 34 450 q 43 651 34 633 q 68 667 52 667 q 117 705 99 667 q 156 745 130 731 q 182 751 168 751 q 252 736 198 751 q 454 642 357 708 l 500 612 l 505 750 q 517 909 507 868 q 555 949 528 949 q 579 959 572 949 z "},"e":{"ha":719,"x_min":20,"x_max":688,"o":"m 566 854 q 579 850 571 863 q 625 810 589 836 q 678 755 665 783 q 687 735 688 738 q 675 732 686 732 q 650 651 650 732 q 651 582 650 609 l 655 472 l 635 476 q 602 482 629 477 q 562 490 575 487 q 486 511 505 502 q 465 534 465 521 q 476 587 465 547 l 481 606 l 388 606 l 294 606 l 288 582 q 264 556 282 557 q 229 498 245 555 q 216 438 216 453 q 220 437 216 437 q 275 445 239 437 q 423 456 332 456 q 518 450 487 456 l 553 445 l 536 404 q 469 290 502 320 l 449 270 l 393 282 q 330 289 366 289 q 217 267 277 289 q 187 251 193 258 q 182 224 182 244 q 232 114 182 179 q 289 58 254 85 q 336 30 324 30 q 408 83 349 30 q 465 127 457 127 q 473 117 471 127 q 479 73 479 95 q 488 39 479 49 q 494 20 494 34 q 483 -44 494 -5 q 460 -103 472 -83 q 346 -167 419 -167 q 254 -138 307 -167 q 123 -20 187 -100 q 33 141 60 61 q 20 214 20 176 q 22 254 20 239 q 49 431 26 323 q 98 609 72 540 l 123 682 l 96 701 q 62 750 62 723 q 69 768 62 758 q 73 788 79 780 q 77 798 66 798 q 129 817 91 798 q 216 837 170 837 q 241 830 235 837 q 273 817 248 823 q 316 810 298 810 l 326 810 l 347 814 l 330 800 q 311 777 311 788 q 349 764 311 764 q 444 780 387 764 q 490 798 477 789 q 514 825 503 807 q 544 849 530 853 q 566 854 560 844 z "},"f":{"ha":469,"x_min":33,"x_max":453,"o":"m 239 1051 q 327 1062 266 1062 q 397 1050 385 1062 q 410 1028 410 1038 q 437 996 410 1020 q 453 978 453 982 q 452 977 453 977 q 448 978 450 977 q 414 983 429 983 q 346 934 399 983 q 293 871 293 884 q 275 854 293 857 q 248 811 256 853 q 241 762 241 783 q 254 749 241 749 q 271 750 264 749 q 373 761 311 757 l 445 766 l 441 747 q 429 694 430 705 q 404 618 423 659 q 385 585 392 593 q 358 576 377 576 q 296 583 346 576 q 269 585 285 585 q 241 553 241 585 q 248 483 241 537 q 267 179 267 309 q 240 -52 267 14 q 99 -174 203 -140 q 45 -187 58 -187 l 42 -187 q 41 -184 41 -186 q 54 -140 41 -171 q 69 -91 69 -100 q 81 -53 69 -83 q 91 -20 91 -31 q 83 11 91 -19 q 76 54 76 35 q 83 125 76 83 q 96 313 96 225 q 91 456 96 361 q 83 520 88 502 q 65 552 77 538 q 42 595 52 566 q 33 651 33 625 q 34 669 33 663 q 58 709 39 690 q 83 785 77 730 q 239 1051 106 1005 z "},"g":{"ha":639,"x_min":53,"x_max":616,"o":"m 298 507 q 220 570 228 570 q 212 536 212 570 q 214 452 212 528 q 227 304 220 316 l 236 288 l 267 304 q 355 381 307 324 q 378 410 378 407 q 365 418 378 414 q 357 421 359 419 q 353 426 354 423 q 351 431 351 429 q 352 437 351 433 q 353 445 353 442 q 298 507 353 460 m 389 837 q 491 933 483 933 q 518 895 498 933 q 551 837 541 853 q 564 784 562 814 q 567 764 567 768 q 561 747 567 753 q 530 731 555 742 q 456 678 499 718 q 414 625 414 639 q 438 595 414 614 q 461 589 460 582 q 469 602 461 602 q 533 564 481 602 q 597 507 585 525 q 616 461 616 479 q 552 358 616 434 q 335 160 437 220 q 292 129 292 136 l 293 129 q 411 118 294 129 q 518 102 518 109 q 510 73 518 95 q 507 60 507 62 q 548 -46 507 39 q 547 -50 549 -49 q 537 -50 544 -52 l 536 -50 q 501 -87 522 -50 q 473 -159 480 -125 q 463 -188 471 -179 q 431 -206 456 -197 q 355 -228 384 -228 q 317 -217 335 -228 q 282 -174 282 -198 q 308 -109 282 -155 q 338 -47 338 -54 q 281 -38 338 -41 q 267 -37 275 -38 q 255 -37 258 -37 q 167 -68 225 -37 l 104 -102 l 81 -77 q 54 12 54 -47 q 62 65 54 41 q 81 102 75 102 q 94 95 87 102 q 115 88 106 85 q 103 104 125 91 q 98 109 100 107 q 62 140 68 126 q 53 483 53 165 q 58 692 53 674 q 73 720 64 713 q 109 727 81 727 q 118 726 111 727 q 129 726 125 726 q 157 745 144 726 q 232 787 191 787 q 277 765 260 787 l 293 742 l 389 837 z "},"h":{"ha":643,"x_min":22,"x_max":597,"o":"m 146 1024 q 148 1029 146 1029 q 195 987 152 1029 q 252 912 229 955 q 274 841 274 869 q 259 815 274 819 q 239 734 243 810 q 235 598 235 669 l 235 541 l 282 594 q 370 675 331 651 q 438 749 415 703 q 462 788 454 781 q 490 795 469 795 l 496 795 q 526 791 518 795 q 540 773 533 787 q 566 727 551 747 q 583 652 581 701 q 584 642 583 648 q 585 633 585 636 q 568 604 585 605 q 528 535 549 601 q 503 396 507 469 l 503 362 q 563 142 503 267 q 597 64 597 68 q 548 61 597 61 q 502 54 502 61 q 495 53 502 53 q 453 58 475 53 q 385 91 407 69 q 354 159 363 113 q 340 304 345 205 l 335 412 l 277 324 l 217 235 l 205 126 q 187 -9 193 23 l 182 -38 l 138 -3 q 98 24 104 24 l 98 23 q 65 61 94 23 q 22 168 22 119 q 33 239 22 191 q 80 747 68 396 q 96 983 87 956 q 125 1010 107 1006 q 146 1024 146 1016 z "},"i":{"ha":320,"x_min":38,"x_max":301,"o":"m 113 1025 q 121 1028 115 1028 q 168 1012 129 1028 q 237 969 195 1001 q 278 929 278 937 q 275 928 278 928 l 267 930 q 259 932 264 932 q 248 918 252 932 q 236 856 244 905 q 217 800 227 800 q 210 802 213 800 q 136 833 186 808 q 72 869 87 857 q 54 887 54 883 q 65 905 54 891 q 103 986 95 939 q 113 1025 109 1019 m 95 700 q 122 684 100 705 q 161 655 142 661 q 201 614 174 651 q 228 564 228 578 q 216 547 228 553 q 205 513 205 540 q 208 456 205 507 q 285 57 222 232 q 301 3 301 12 q 269 -4 301 -4 q 152 14 195 -4 q 75 113 75 41 q 54 387 75 165 q 38 620 38 562 q 45 674 38 661 q 66 690 52 688 q 95 700 88 693 z "},"j":{"ha":301,"x_min":-52,"x_max":248,"o":"m 37 1001 l 31 1031 l 62 1031 q 146 1015 92 1031 q 209 986 199 998 q 206 974 220 974 q 190 918 194 974 q 182 857 187 863 l 180 857 q 121 876 170 857 q 38 910 72 894 l 5 926 l 23 949 q 38 986 38 971 q 37 1001 38 996 m 111 773 q 115 779 111 779 q 174 734 130 779 q 229 661 217 690 q 248 590 248 618 q 237 570 248 570 q 227 418 227 570 q 227 379 227 407 q 228 334 228 351 l 228 237 q 212 37 228 95 q 135 -127 183 -62 q 5 -239 87 -191 l -46 -270 l -50 -212 q -51 -198 -50 -208 q -52 -184 -52 -189 q 7 12 -52 -64 q 53 112 39 54 q 68 279 66 170 q 68 311 68 289 q 69 346 69 334 q 65 529 69 458 q 61 673 61 605 l 61 699 q 67 743 62 734 q 88 758 72 751 q 111 773 111 766 z "},"k":{"ha":614,"x_min":41,"x_max":601,"o":"m 92 1017 q 110 1016 92 1029 q 117 1008 113 1012 q 157 977 127 994 q 212 906 189 956 q 236 830 236 853 q 225 810 236 814 q 213 749 213 806 q 218 636 213 734 l 222 563 l 290 661 q 401 808 343 741 q 484 888 458 875 l 507 901 l 505 860 l 505 848 q 510 810 505 815 q 529 761 519 800 q 538 699 538 722 q 538 694 538 697 q 537 690 537 692 q 498 642 532 667 q 382 516 452 608 q 313 399 313 425 q 316 393 313 396 q 324 366 324 388 q 430 252 324 346 q 571 126 562 136 l 601 96 l 563 73 q 519 46 526 53 q 476 28 514 39 q 422 16 438 16 l 416 16 q 373 66 400 22 q 293 161 342 117 l 240 212 l 239 75 l 236 -60 l 180 -31 q 100 24 125 -1 q 50 151 50 77 q 52 172 50 165 q 64 419 64 244 q 60 612 64 521 q 45 879 49 808 l 41 981 l 65 996 q 92 1017 92 1012 z "},"l":{"ha":297,"x_min":37,"x_max":247,"o":"m 115 1015 q 117 1016 115 1016 q 160 985 123 1016 q 243 850 220 932 q 247 826 247 836 q 235 804 247 817 q 224 782 227 796 q 221 718 221 768 q 225 517 221 665 q 225 467 225 517 q 225 365 225 467 q 209 -34 225 -18 l 208 -35 q 167 -18 202 -35 q 122 -1 134 -1 l 121 -1 q 80 43 111 -1 q 42 111 49 87 q 37 146 37 133 q 47 233 37 161 q 61 467 61 312 l 61 614 q 60 683 61 637 q 60 749 60 728 q 62 947 60 914 q 71 983 65 974 q 92 997 76 991 q 115 1015 115 1005 z "},"m":{"ha":902,"x_min":45,"x_max":846,"o":"m 373 811 q 454 865 444 865 q 475 826 461 865 q 494 784 486 792 q 499 760 499 779 q 513 731 499 742 q 540 690 524 722 q 556 647 556 659 q 543 635 556 635 q 532 609 532 635 q 534 593 532 593 q 595 651 541 593 q 663 746 656 716 q 692 777 669 772 q 718 791 711 781 q 720 792 718 792 q 758 769 731 792 q 799 741 792 741 q 825 700 804 741 q 846 636 846 661 q 834 618 846 618 q 817 525 822 618 q 814 381 814 487 q 831 11 814 79 l 845 -38 l 807 -31 q 776 -27 798 -30 q 749 -23 754 -24 q 691 2 726 -20 q 643 47 656 24 q 631 90 631 68 q 643 231 631 111 q 655 396 650 309 l 661 484 l 631 449 q 547 370 564 370 q 544 371 545 370 q 541 372 543 372 l 537 372 q 532 357 532 372 q 534 309 532 353 q 568 113 545 194 q 571 104 571 104 q 556 98 571 98 q 518 100 551 98 q 370 161 400 110 q 359 218 359 179 q 362 308 359 266 q 369 513 369 419 l 369 597 l 340 570 q 269 475 315 545 l 224 408 l 232 220 q 245 5 239 37 q 247 -9 247 -1 q 239 -18 247 -18 q 209 -11 233 -18 q 159 0 176 -1 q 98 30 133 4 q 56 76 64 56 q 49 115 49 94 q 50 136 49 129 q 65 374 65 229 q 62 467 65 415 q 50 636 53 589 l 45 707 l 68 716 q 98 735 92 727 q 125 727 103 743 q 165 704 148 709 q 197 682 182 699 q 210 673 206 673 q 256 711 218 673 q 373 811 304 758 z "},"n":{"ha":647,"x_min":46,"x_max":617,"o":"m 446 826 q 521 845 492 845 l 552 845 l 530 804 l 509 762 l 525 746 q 576 648 559 711 q 568 616 583 625 q 545 467 545 600 q 552 328 545 414 q 600 11 567 118 q 607 -14 602 0 q 614 -36 612 -28 q 617 -45 617 -43 q 609 -46 617 -46 q 571 -42 594 -46 q 529 -38 547 -38 q 521 -39 521 -38 l 519 -39 q 471 -19 511 -39 q 415 20 425 5 q 392 186 396 49 q 391 324 392 213 l 387 598 l 302 514 l 220 429 l 225 345 q 240 -30 240 64 l 239 -43 q 203 -37 236 -46 q 156 -23 160 -23 q 103 6 137 -20 q 58 56 69 33 q 46 98 46 80 q 50 132 46 109 q 64 331 64 209 q 58 488 64 414 q 47 659 47 632 q 53 699 47 689 q 73 716 58 708 q 103 728 95 728 q 140 718 104 728 q 199 682 178 707 l 221 656 l 275 709 q 446 826 359 789 z "},"o":{"ha":640,"x_min":14,"x_max":585,"o":"m 365 675 q 324 699 346 699 q 303 691 309 699 q 290 656 297 684 q 240 578 271 578 q 201 526 224 578 q 172 427 178 475 q 171 403 171 419 q 200 269 171 335 q 271 178 229 203 q 351 152 315 152 q 374 157 368 152 q 392 217 392 167 q 406 324 392 259 q 419 453 419 382 q 365 675 419 613 m 262 878 q 308 892 297 892 q 336 886 321 892 q 351 872 351 879 q 387 849 351 860 q 465 796 423 837 q 532 708 507 755 q 585 388 585 604 q 538 91 585 206 q 526 57 534 79 q 515 31 517 35 q 511 20 513 23 q 507 16 510 18 q 502 16 505 15 q 494 23 499 18 q 486 31 488 28 q 479 32 483 33 q 473 28 476 31 q 465 18 471 24 q 415 -22 450 -7 q 343 -38 380 -38 l 340 -38 q 197 16 277 -37 q 80 136 118 68 q 33 259 52 184 q 14 396 14 334 q 125 716 14 555 q 170 795 170 781 q 199 837 170 810 q 262 878 229 864 z "},"p":{"ha":704,"x_min":47,"x_max":674,"o":"m 435 216 q 437 244 437 227 q 431 427 437 273 l 426 637 l 387 593 q 300 479 340 541 q 236 404 255 411 q 224 389 227 401 q 221 332 221 377 l 221 264 l 243 266 l 248 266 q 264 258 264 266 l 264 256 l 264 255 q 275 244 264 250 q 359 227 298 237 q 433 216 420 216 l 435 216 m 465 869 q 537 910 465 869 q 547 879 541 910 q 585 776 560 806 q 610 727 597 761 q 623 677 623 693 l 623 671 q 605 658 617 658 q 589 583 594 658 q 586 532 586 551 q 654 125 586 324 q 660 106 656 117 q 665 90 663 96 q 669 77 667 83 q 673 68 671 71 l 674 64 q 661 62 667 62 q 614 65 652 62 q 578 66 600 66 q 551 62 559 66 q 529 41 543 57 q 494 12 503 12 q 430 37 484 12 q 332 68 400 50 q 241 85 263 85 q 235 84 235 85 l 235 71 q 237 -56 235 56 q 241 -194 241 -170 q 197 -176 237 -194 q 152 -160 161 -160 l 149 -160 l 148 -161 q 101 -121 137 -161 q 56 -58 65 -81 q 47 -16 47 -38 q 52 26 47 0 q 60 395 60 88 l 60 708 l 83 722 q 109 742 109 736 q 111 743 109 743 q 161 718 122 743 q 210 677 201 692 l 228 651 l 273 705 q 465 869 350 800 z "},"q":{"ha":671,"x_min":45,"x_max":623,"o":"m 275 589 q 218 618 221 618 q 217 590 217 618 q 224 381 217 522 q 235 236 231 240 q 270 251 243 228 q 406 347 317 293 q 425 368 422 357 q 429 427 429 378 l 429 495 l 378 526 q 275 589 320 564 m 98 814 q 121 804 98 822 q 146 791 141 791 q 168 800 149 791 q 220 814 190 811 q 241 812 236 815 q 247 800 247 810 q 311 750 247 783 q 411 704 393 711 q 441 696 434 696 q 453 712 448 696 q 475 736 460 731 q 502 747 495 743 l 503 749 q 506 749 505 749 q 553 713 515 749 q 604 644 585 684 q 623 576 623 605 q 610 547 623 555 q 583 252 583 530 q 584 199 583 236 q 585 141 585 163 q 601 -115 587 -73 q 613 -160 613 -149 q 562 -172 613 -164 q 528 -176 541 -176 q 480 -160 509 -176 q 418 -105 434 -133 q 401 -22 401 -77 q 404 47 401 22 q 410 137 410 100 l 410 148 q 407 149 408 149 q 358 119 396 149 q 279 49 320 90 q 212 -11 220 -11 q 178 7 201 -11 q 155 35 155 26 q 115 69 155 46 q 64 115 77 94 q 52 180 52 136 q 53 229 52 210 q 58 418 58 332 q 50 661 58 579 q 45 734 45 723 q 73 798 45 788 q 98 814 98 806 z "},"r":{"ha":632,"x_min":42,"x_max":595,"o":"m 442 836 q 496 860 494 860 q 502 833 502 860 q 511 798 502 804 q 576 738 576 743 q 567 731 576 735 q 553 708 553 726 q 555 678 553 692 q 587 514 566 570 q 595 484 595 496 q 595 483 595 484 q 545 469 589 476 q 469 461 500 461 l 454 461 q 406 478 415 467 q 397 538 397 490 q 391 590 397 590 q 381 586 388 590 q 316 515 363 579 q 291 483 305 500 q 264 449 277 465 q 250 430 251 433 l 232 408 l 241 244 q 258 47 251 77 q 263 18 263 26 q 262 12 263 12 q 186 28 239 12 q 115 56 134 43 q 72 96 83 76 q 61 160 61 115 q 65 251 61 193 q 69 370 69 308 q 49 648 69 524 q 42 741 42 689 q 46 783 42 773 q 71 804 50 792 q 100 817 92 817 q 114 810 104 817 q 157 785 123 803 q 212 732 186 772 q 235 678 235 697 q 224 662 235 666 q 212 648 212 656 l 213 647 q 264 697 221 647 q 442 836 345 785 z "},"s":{"ha":635,"x_min":-20,"x_max":597,"o":"m 198 838 q 247 868 236 868 q 259 856 255 868 q 316 831 263 841 q 572 636 491 802 q 597 576 597 583 q 557 559 597 564 q 460 547 479 547 q 412 559 427 547 q 385 602 397 571 q 289 675 355 675 l 269 675 l 277 625 q 281 587 281 600 q 271 566 281 571 q 258 537 258 555 q 287 472 258 507 q 385 381 316 437 q 528 241 490 297 q 567 118 567 184 q 499 -24 567 34 q 335 -83 431 -83 q 324 -82 331 -83 q 313 -81 317 -81 q 191 -46 252 -77 q 3 81 130 -15 l -20 100 l 30 114 q 80 134 80 129 q 132 141 80 141 q 245 130 206 141 q 315 106 286 119 q 355 96 334 96 l 363 96 q 403 127 403 107 q 256 281 403 165 q 130 421 165 354 q 94 587 94 488 q 198 838 94 757 z "},"t":{"ha":487,"x_min":19,"x_max":496,"o":"m 180 1012 q 203 1004 180 1027 q 255 958 222 985 q 302 886 288 929 l 320 838 l 407 844 q 473 845 433 845 q 496 845 473 845 q 494 838 496 845 q 488 815 492 830 q 480 791 483 800 q 422 670 449 689 q 355 662 411 662 l 298 662 l 293 623 q 285 372 288 593 q 284 320 285 351 q 283 278 283 289 q 296 117 283 157 q 324 67 307 80 q 382 52 342 54 q 403 45 399 50 q 407 24 407 41 q 395 -18 407 0 q 388 -45 388 -27 q 342 -73 388 -54 q 273 -92 297 -92 q 204 -75 237 -92 q 153 -31 171 -58 q 110 216 110 38 q 115 336 110 250 q 122 441 117 369 q 129 536 127 513 l 134 618 l 106 606 q 72 595 81 595 q 41 625 61 595 q 19 690 19 655 q 41 761 19 724 q 69 796 61 796 q 81 785 75 796 q 110 777 88 773 l 132 783 l 134 879 l 136 978 l 159 989 q 180 1012 180 998 z "},"u":{"ha":673,"x_min":41,"x_max":663,"o":"m 427 796 q 460 788 427 814 q 488 772 481 772 q 526 749 503 772 q 563 697 549 726 l 583 655 l 567 642 q 553 594 553 629 q 557 468 553 564 q 582 192 567 264 q 639 66 597 119 q 661 35 663 38 q 595 18 658 33 q 534 7 552 7 q 464 20 513 7 q 423 8 456 23 q 339 -5 392 -5 l 338 -5 q 169 75 237 -5 q 73 309 100 156 q 52 501 64 359 q 41 700 41 643 q 44 747 41 736 q 58 765 47 758 q 83 787 77 776 q 117 774 88 798 q 164 738 123 768 q 207 679 180 727 q 233 612 233 631 q 222 589 233 593 q 210 541 210 585 q 220 404 210 484 q 243 283 231 323 q 280 209 255 243 q 323 175 305 175 q 370 199 336 175 l 406 225 l 400 396 q 388 647 395 567 q 384 718 384 694 q 408 780 384 770 q 427 796 427 787 z "},"v":{"ha":665,"x_min":19,"x_max":623,"o":"m 463 765 l 495 853 l 536 815 q 597 741 572 783 q 623 673 623 700 q 594 590 623 652 q 551 470 568 538 q 509 255 533 401 q 474 78 484 111 q 445 41 464 45 q 429 37 439 39 q 415 34 418 35 q 393 43 408 31 q 382 47 382 53 q 385 30 382 45 q 387 8 389 12 q 370 8 384 4 q 354 13 366 9 q 338 18 342 16 q 300 22 313 22 q 237 45 277 23 q 183 85 198 66 q 160 175 168 106 q 60 582 146 298 q 19 734 19 713 q 34 762 19 742 q 62 785 53 785 l 65 784 l 68 784 q 119 772 94 776 q 191 731 153 766 q 228 673 228 696 q 218 658 228 662 q 214 648 214 656 q 285 387 214 623 q 339 232 331 232 q 370 393 342 232 q 463 765 411 624 z "},"w":{"ha":949,"x_min":27,"x_max":903,"o":"m 743 766 q 754 796 751 796 q 795 766 757 796 q 829 743 826 743 l 830 745 l 830 746 q 867 701 836 746 q 901 644 898 656 q 903 628 903 633 q 883 545 903 618 q 834 176 856 448 q 814 20 822 34 q 787 4 804 4 q 761 -3 765 4 q 753 -7 760 -7 q 747 -5 749 -7 q 671 1 734 1 q 581 19 601 1 q 540 114 560 37 q 500 239 525 168 q 471 309 475 309 q 423 175 467 305 q 361 18 378 41 q 347 -15 347 1 q 348 -18 347 -16 q 349 -20 349 -19 q 350 -24 349 -22 l 350 -27 q 345 -34 350 -34 q 338 -33 340 -34 q 279 -23 316 -26 q 196 -1 240 -20 q 138 42 152 19 q 118 144 125 64 q 56 532 104 315 q 27 685 27 667 q 45 715 27 700 q 64 738 64 730 q 72 741 64 741 q 109 735 87 741 q 218 651 175 720 q 231 627 231 631 q 221 614 231 620 q 212 591 212 606 q 217 544 212 575 q 247 393 222 507 q 277 259 271 278 q 279 255 277 255 q 350 465 286 255 q 415 674 407 655 l 427 703 l 464 667 q 499 637 494 637 l 499 639 l 500 640 q 529 606 505 640 q 562 552 553 571 q 587 511 572 524 q 604 490 604 499 q 593 479 604 483 q 587 469 587 476 q 613 391 587 458 q 662 271 648 298 l 680 235 l 685 292 q 700 481 690 358 q 743 766 711 644 z "},"x":{"ha":674,"x_min":24,"x_max":693,"o":"m 57 776 q 84 772 57 802 q 127 751 96 757 q 199 713 156 747 q 256 646 256 671 q 252 633 256 637 q 250 627 250 631 q 279 552 250 613 l 316 479 l 393 591 q 490 746 456 682 q 517 788 511 788 q 548 748 519 788 q 590 684 576 708 q 601 610 601 665 l 601 556 l 557 509 q 465 401 517 467 q 412 327 412 335 q 586 77 412 302 q 680 -52 663 -22 l 693 -80 l 617 -79 q 462 -55 500 -77 q 368 68 423 -33 q 308 167 311 167 q 255 96 298 167 q 144 -23 178 -23 q 136 -22 138 -23 q 109 -18 118 -15 l 107 -18 q 85 23 96 -18 q 75 104 75 64 l 75 122 q 107 195 80 195 l 113 195 l 114 194 q 174 262 126 194 l 221 331 l 208 355 q 126 498 187 389 q 24 727 24 682 q 41 755 24 746 q 57 776 57 764 z "},"y":{"ha":711,"x_min":20,"x_max":663,"o":"m 578 772 q 593 774 585 773 q 606 777 601 776 q 612 779 610 779 q 639 729 618 779 q 662 658 659 680 q 663 633 663 652 q 661 586 663 616 q 635 533 655 543 q 561 412 614 524 q 469 184 507 300 l 448 117 l 468 85 q 483 56 483 62 q 452 46 483 46 q 427 39 433 46 q 415 3 422 33 q 404 -148 404 -37 q 396 -254 404 -254 q 353 -241 384 -254 q 312 -233 320 -229 l 311 -233 q 269 -197 300 -233 q 228 -138 237 -161 q 216 -79 216 -110 q 233 15 216 -39 q 247 73 247 60 q 241 95 247 85 q 231 125 231 117 q 170 271 231 137 q 69 526 118 387 q 20 699 20 666 q 45 746 20 730 q 71 758 61 758 q 111 747 79 758 q 220 671 187 723 q 221 637 235 651 q 213 620 213 629 q 224 568 213 605 q 313 350 259 444 l 342 301 l 366 361 q 534 741 506 694 q 578 772 549 766 z "},"z":{"ha":718,"x_min":-9,"x_max":685,"o":"m 552 841 q 587 838 559 842 q 623 836 609 836 q 640 827 635 836 q 665 821 644 821 q 685 811 685 821 q 671 784 685 804 q 656 712 659 765 q 625 628 654 628 q 623 629 624 628 q 620 629 621 629 l 618 629 q 535 523 598 629 q 406 271 472 416 l 361 165 q 433 159 361 159 q 658 138 551 159 q 671 129 671 136 q 650 79 671 129 q 572 -31 606 -15 q 555 -37 559 -37 q 496 -20 543 -37 q 353 1 434 1 q 244 -12 286 1 q 208 -22 212 -22 q 187 -11 197 -22 q 163 4 175 4 q 142 49 152 4 q 137 84 137 71 q 156 126 137 99 q 194 167 179 159 q 199 190 208 175 q 191 229 191 206 q 216 300 191 266 q 330 488 235 327 q 426 654 426 648 q 407 659 426 659 q 176 612 334 659 q 104 591 114 591 q 84 601 94 591 q 31 666 71 613 q -9 724 -9 719 q 19 730 -9 730 q 64 722 47 730 q 91 738 79 715 q 127 785 107 766 q 153 803 146 803 q 163 795 157 803 q 182 785 170 785 q 250 796 191 785 q 430 825 347 815 q 552 841 511 834 z "},"{":{"ha":442,"x_min":31,"x_max":426,"o":"m 258 1040 q 338 1054 296 1054 q 343 1054 338 1054 q 373 1050 365 1054 q 392 1027 381 1046 l 408 997 l 392 977 q 377 944 377 956 q 339 892 377 933 q 298 861 309 861 q 294 864 297 861 q 290 868 293 868 q 288 856 288 868 q 308 713 288 814 q 331 541 331 591 q 289 418 331 456 l 274 403 l 289 377 q 312 237 305 351 q 326 92 319 144 l 330 56 l 347 77 l 366 102 l 389 62 q 416 19 410 26 q 426 -34 426 11 q 420 -80 426 -68 q 323 -141 395 -141 q 256 -126 285 -141 q 183 -51 201 -96 q 163 119 165 -5 q 155 275 160 251 q 122 304 149 298 q 90 326 94 311 q 57 339 84 343 l 31 336 l 31 406 q 37 500 31 473 q 44 521 39 517 q 58 521 49 525 q 85 515 75 515 q 132 529 109 515 q 159 537 153 543 q 165 540 160 536 q 174 552 170 544 q 179 564 180 564 q 172 563 179 566 q 161 566 164 560 q 159 590 159 571 q 141 736 159 621 q 127 876 127 827 q 128 882 127 879 q 129 886 129 884 q 258 1040 140 1000 z "},"|":{"ha":313,"x_min":50,"x_max":271,"o":"m 129 958 l 157 971 l 191 939 q 236 885 222 907 q 262 814 250 863 q 271 760 271 776 q 254 732 271 732 q 235 412 235 732 q 235 311 235 385 q 236 193 236 237 q 237 -113 237 71 l 236 -213 q 190 -184 233 -213 q 144 -161 155 -161 l 142 -161 l 141 -163 q 101 -120 133 -163 q 60 -53 69 -77 q 50 -3 50 -28 q 56 72 50 23 q 73 457 66 168 q 89 873 81 804 q 129 958 96 943 z "},"}":{"ha":427,"x_min":16,"x_max":397,"o":"m 114 1066 q 170 1080 155 1080 q 205 1064 183 1080 q 227 1038 227 1048 q 241 994 227 1019 q 275 897 266 952 q 285 738 285 842 q 284 720 285 732 q 283 701 283 708 l 283 662 q 289 541 283 549 q 313 536 293 536 q 385 547 349 536 l 391 547 q 397 526 397 547 q 395 471 397 522 q 372 359 388 359 q 365 361 368 359 q 328 370 346 369 q 297 358 302 374 q 279 346 293 342 q 274 347 278 347 q 271 340 271 347 q 305 197 271 327 q 334 66 334 94 q 286 -63 334 -7 q 165 -130 237 -119 l 149 -130 q 73 -123 118 -130 q 18 -111 27 -117 q 16 -110 16 -111 q 39 -73 16 -100 q 68 -33 68 -37 q 94 -1 68 -24 q 130 41 117 20 q 155 56 144 61 l 157 56 q 164 76 164 56 q 140 205 164 104 q 117 354 117 300 q 125 411 117 388 q 129 433 129 420 q 119 481 129 446 q 110 545 110 511 q 123 713 110 583 q 127 776 127 743 q 107 894 127 883 q 66 906 91 902 q 41 914 46 909 q 33 939 35 920 q 30 960 30 952 q 52 1025 30 997 q 114 1066 75 1054 z "},"~":{"ha":716,"x_min":53,"x_max":656,"o":"m 155 498 l 231 581 l 243 559 q 286 537 255 537 q 345 517 345 537 q 340 510 345 514 q 339 503 339 509 q 374 471 339 492 q 441 438 416 444 q 449 437 444 437 q 469 453 463 437 q 487 518 476 469 q 502 564 496 556 q 506 566 502 566 q 574 532 521 566 q 640 479 627 498 q 656 437 656 456 q 625 362 656 410 q 499 274 570 282 q 490 273 496 274 q 480 273 483 273 q 378 293 435 273 q 275 346 321 313 q 251 355 260 355 q 194 307 233 355 q 159 270 171 279 q 152 267 153 267 q 117 289 137 267 q 80 345 96 311 q 53 423 53 403 q 57 433 53 433 q 72 423 62 433 l 73 423 q 155 498 85 423 z "}}}
